<?xml version="1.0" standalone="no"?>
<!DOCTYPE svg PUBLIC "-//W3C//DTD SVG 1.1//EN" "http://www.w3.org/Graphics/SVG/1.1/DTD/svg11.dtd" >
<svg xmlns="http://www.w3.org/2000/svg" xmlns:xlink="http://www.w3.org/1999/xlink" version="1.1">
<metadata>
Created by FontForge 20170731 at Thu Oct  2 18:57:29 2008
 By Aleksey,,,
Copyright (C) 2005, 2008 Hoefler &#38; Frere-Jones. http://www.typography.com
</metadata>
<defs>
<font id="GothamXNarrow-UltraItalic" horiz-adv-x="500" >
  <font-face 
    font-family="Gotham XNarrow Ultra"
    font-weight="500"
    font-style="italic"
    font-stretch="condensed"
    units-per-em="1000"
    panose-1="0 0 0 0 0 0 0 0 0 0"
    ascent="800"
    descent="-200"
    x-height="546"
    cap-height="700"
    bbox="-121 -256 1004 988"
    underline-thickness="50"
    underline-position="-200"
    slope="-12"
    unicode-range="U+0020-FB04"
  />
<missing-glyph 
d="M0 -200v1000h500v-1000h-500zM50 -76l172 376l-172 376v-752zM71 -150h358l-179 390zM250 360l179 390h-358zM450 -76v752l-172 -376z" />
    <glyph glyph-name="f_f" unicode="ff" horiz-adv-x="636" 
d="M-10 0l86 396h-40l33 150h39l4 17q16 74 56 114q46 46 132 46q54 0 110 -16l-29 -130q-23 7 -42 7q-36 0 -43 -36l-1 -5h79l-32 -147h-77l-86 -396h-189zM307 0l86 396h-40l33 150h39l4 17q16 74 56 114q46 46 132 46q54 0 110 -16l-29 -130q-23 7 -42 7q-36 0 -43 -36
l-1 -5h79l-32 -147h-77l-86 -396h-189z" />
    <glyph glyph-name="fi" unicode="fi" horiz-adv-x="560" 
d="M-10 0l86 396h-40l33 150h39l4 17q16 74 56 114q46 46 132 46q54 0 110 -16l-29 -130q-23 7 -42 7q-36 0 -43 -36l-1 -5h79l-32 -147h-77l-86 -396h-189zM285 0l118 546h191l-118 -546h-191zM409 579l31 141h194l-31 -141h-194z" />
    <glyph glyph-name="fl" unicode="fl" horiz-adv-x="560" 
d="M-10 0l86 396h-40l33 150h39l4 17q16 74 56 114q46 46 132 46q54 0 110 -16l-29 -130q-23 7 -42 7q-36 0 -43 -36l-1 -5h79l-32 -147h-77l-86 -396h-189zM285 0l156 720h190l-156 -720h-190z" />
    <glyph glyph-name="f_f_i" unicode="ffi" horiz-adv-x="877" 
d="M-10 0l86 396h-40l33 150h39l4 17q16 74 56 114q46 46 132 46q54 0 110 -16l-29 -130q-23 7 -42 7q-36 0 -43 -36l-1 -5h79l-32 -147h-77l-86 -396h-189zM307 0l86 396h-40l33 150h39l4 17q16 74 56 114q46 46 132 46q54 0 110 -16l-29 -130q-23 7 -42 7q-36 0 -43 -36
l-1 -5h79l-32 -147h-77l-86 -396h-189zM602 0l118 546h191l-118 -546h-191zM726 579l31 141h194l-31 -141h-194z" />
    <glyph glyph-name="f_f_l" unicode="ffl" horiz-adv-x="877" 
d="M-10 0l86 396h-40l33 150h39l4 17q16 74 56 114q46 46 132 46q54 0 110 -16l-29 -130q-23 7 -42 7q-36 0 -43 -36l-1 -5h79l-32 -147h-77l-86 -396h-189zM307 0l86 396h-40l33 150h39l4 17q16 74 56 114q46 46 132 46q54 0 110 -16l-29 -130q-23 7 -42 7q-36 0 -43 -36
l-1 -5h79l-32 -147h-77l-86 -396h-189zM602 0l156 720h190l-156 -720h-190z" />
    <glyph glyph-name=".notdef" 
d="M0 -200v1000h500v-1000h-500zM50 -76l172 376l-172 376v-752zM71 -150h358l-179 390zM250 360l179 390h-358zM450 -76v752l-172 -376z" />
    <glyph glyph-name=".null" horiz-adv-x="0" 
 />
    <glyph glyph-name="nonmarkingreturn" horiz-adv-x="333" 
 />
    <glyph glyph-name="space" unicode=" " horiz-adv-x="168" 
 />
    <glyph glyph-name="exclam" unicode="!" horiz-adv-x="258" 
d="M74 226l21 419l11 55h225l-11 -55l-157 -419h-89zM-29 0l39 179h198l-39 -179h-198z" />
    <glyph glyph-name="quotedbl" unicode="&#x22;" horiz-adv-x="430" 
d="M38 355l76 345h188v-7l-174 -338h-90zM252 355l76 345h188l-1 -7l-173 -338h-90z" />
    <glyph glyph-name="numbersign" unicode="#" horiz-adv-x="516" 
d="M13 0l36 133h-58l29 167h75l28 104h-65l29 167h81l35 129h128l-34 -129h75l35 129h128l-35 -129h58l-29 -167h-75l-28 -104h64l-29 -167h-80l-37 -133h-128l37 133h-77l-35 -133h-128zM215 294h88l31 116h-88z" />
    <glyph glyph-name="dollar" unicode="$" horiz-adv-x="481" 
d="M295 769h121l-19 -82q78 -20 135 -67l-88 -149q-70 57 -138 57q-25 0 -38 -11t-13 -27t15 -30t64 -44q65 -42 96.5 -82t31.5 -103q0 -93 -58.5 -157t-159.5 -72l-23 -106h-121l26 115q-85 19 -156 78l83 160q86 -75 165 -75q25 0 38 10.5t13 27.5q0 15 -13 27.5t-54 37.5
q-74 46 -107.5 87t-33.5 105q0 96 60.5 158.5t157.5 70.5z" />
    <glyph glyph-name="percent" unicode="%" horiz-adv-x="709" 
d="M49 0l288 372l243 328h112l-288 -372l-243 -328h-112zM183 304q-60 0 -93.5 39.5t-33.5 110.5q0 58 18 116.5t57 97.5q40 40 98 40q60 0 93.5 -39.5t33.5 -110.5q0 -58 -18 -116.5t-55 -95.5q-42 -42 -100 -42zM189 405q12 0 21 9q18 18 29 62t11 82q0 49 -27 49
q-12 0 -21 -9q-18 -18 -29 -62t-11 -82q0 -49 27 -49zM512 -8q-60 0 -93.5 39.5t-33.5 110.5q0 58 18 116.5t55 95.5q42 42 100 42q60 0 93.5 -39.5t33.5 -110.5q0 -58 -18 -116.5t-55 -95.5q-42 -42 -100 -42zM518 93q12 0 21 9q18 18 29 62t11 82q0 49 -27 49
q-12 0 -21 -9q-18 -18 -29 -62t-11 -82q0 -49 27 -49z" />
    <glyph glyph-name="ampersand" unicode="&#x26;" horiz-adv-x="559" 
d="M434 335l124 -55q-32 -90 -85 -157l35 -71l-136 -72l-23 48q-66 -39 -144 -39q-97 0 -154.5 48t-57.5 132q0 73 44 132t120 97q-31 66 -31 125q0 77 52.5 133.5t143.5 56.5q83 0 134.5 -45.5t51.5 -117.5q0 -126 -151 -207l39 -85q22 38 38 77zM236 137q21 0 42 10
l-61 133q-40 -39 -40 -87q0 -56 59 -56zM283 515q0 -34 14 -63q58 41 58 86q0 39 -31 39q-18 0 -29.5 -18t-11.5 -44z" />
    <glyph glyph-name="quotesingle" unicode="'" horiz-adv-x="221" 
d="M38 355l76 345h193v-7l-177 -338h-92z" />
    <glyph glyph-name="parenleft" unicode="(" horiz-adv-x="338" 
d="M181 -143q-170 107 -170 345q0 114 36 219.5t111 180.5q82 82 208 109l32 -138q-66 -24 -104 -62q-59 -59 -84 -157.5t-25 -169.5q0 -136 88 -218z" />
    <glyph glyph-name="parenright" unicode=")" horiz-adv-x="338" 
d="M160 712q170 -107 170 -345q0 -114 -36 -219.5t-111 -180.5q-82 -82 -208 -109l-32 138q66 24 104 62q59 59 84 157.5t25 169.5q0 136 -88 218z" />
    <glyph glyph-name="asterisk" unicode="*" horiz-adv-x="366" 
d="M260 350l-120 26l63 116l-106 -71l-37 113l129 6l-115 60l82 87l66 -109l-9 130l120 -26l-62 -115l105 71l38 -114l-130 -5l116 -60l-83 -87l-65 108z" />
    <glyph glyph-name="plus" unicode="+" horiz-adv-x="499" 
d="M131 123l32 145h-136l37 168h136l32 144h170l-32 -144h137l-37 -168h-137l-32 -145h-170z" />
    <glyph glyph-name="comma" unicode="," horiz-adv-x="235" 
d="M-61 -145l-4 72q98 13 116 74h-91l44 199h197l-39 -177q-18 -83 -73 -123t-150 -45z" />
    <glyph glyph-name="hyphen" unicode="-" horiz-adv-x="347" 
d="M12 228l38 174h303l-38 -174h-303z" />
    <glyph glyph-name="period" unicode="." horiz-adv-x="235" 
d="M-41 0l44 198h198l-44 -198h-198z" />
    <glyph glyph-name="slash" unicode="/" horiz-adv-x="392" 
d="M-114 -107l493 884h145l-492 -884h-146z" />
    <glyph glyph-name="zero" unicode="0" horiz-adv-x="543" 
d="M339 715q100 0 157 -64.5t57 -186.5q0 -97 -33 -214t-105 -189q-76 -76 -177 -76q-100 0 -157 65t-57 188q0 96 33 212.5t105 188.5q76 76 177 76zM253 161q18 0 35 17q30 30 54 129t24 163q0 69 -42 69q-18 0 -35 -17q-29 -29 -53.5 -129.5t-24.5 -163.5q0 -68 42 -68z
" />
    <glyph glyph-name="one" unicode="1" horiz-adv-x="325" 
d="M41 0l110 506l-85 -21l20 173l155 44h148l-153 -702h-195z" />
    <glyph glyph-name="two" unicode="2" horiz-adv-x="463" 
d="M-36 0l37 168l231 220q37 36 51 56t14 41q0 22 -16 34.5t-37 12.5q-47 0 -110 -48l-67 152q103 76 214 76q99 0 154.5 -53.5t55.5 -135.5q0 -56 -24 -105.5t-96 -115.5l-137 -125h192l-39 -177h-423z" />
    <glyph glyph-name="three" unicode="3" horiz-adv-x="448" 
d="M174 -13q-118 0 -210 70l81 155q71 -48 123 -48q37 0 55.5 18t18.5 44q0 33 -32 52t-91 19h-11l15 112l140 119h-184l37 172h406l-35 -161l-164 -139q111 -48 111 -168q0 -100 -74 -174q-71 -71 -186 -71z" />
    <glyph glyph-name="four" unicode="4" horiz-adv-x="526" 
d="M210 0l25 112h-243l9 142l339 448h208l-94 -436h66l-34 -154h-65l-25 -112h-186zM176 265h95l40 188z" />
    <glyph glyph-name="five" unicode="5" horiz-adv-x="459" 
d="M178 -13q-120 0 -210 68l77 156q68 -47 123 -47q42 0 63 25.5t21 60.5q0 30 -17 46.5t-47 16.5q-24 0 -56 -17l-88 50l95 354h373l-38 -173h-227l-22 -80q26 7 47 7q85 0 130.5 -47t45.5 -131q0 -128 -84 -214q-75 -75 -186 -75z" />
    <glyph glyph-name="six" unicode="6" horiz-adv-x="498" 
d="M225 -13q-97 0 -150 53q-57 57 -57 167q0 106 38 231.5t102 189.5q84 84 207 84q94 0 165 -42l-66 -158q-52 37 -108 37q-43 0 -72 -29q-30 -30 -46 -82q44 23 93 23q67 0 109 -41t42 -122q0 -68 -24 -135t-65 -108q-68 -68 -168 -68zM230 138q17 0 30 13q17 17 28 55
t11 70q0 50 -36 50q-17 0 -30 -13q-16 -16 -27.5 -54t-11.5 -69q0 -30 12 -42q10 -10 24 -10z" />
    <glyph glyph-name="seven" unicode="7" horiz-adv-x="434" 
d="M-11 0l276 521h-200l39 179h410l-30 -135l-290 -565h-205z" />
    <glyph glyph-name="eight" unicode="8" 
d="M223 -13q-100 0 -162 49t-62 131q0 72 34 127t95 81q-53 55 -53 126q0 90 63 151t173 61q97 0 154.5 -49.5t57.5 -129.5q0 -60 -31.5 -109.5t-86.5 -74.5q66 -52 66 -134q0 -100 -67.5 -164.5t-180.5 -64.5zM229 132q33 0 48.5 36.5t15.5 71.5q0 55 -45 55
q-33 0 -48.5 -36.5t-15.5 -71.5q0 -55 45 -55zM287 420q29 0 43 31.5t14 64.5q0 51 -42 51q-29 0 -43 -31.5t-14 -64.5q0 -51 42 -51z" />
    <glyph glyph-name="nine" unicode="9" horiz-adv-x="498" 
d="M166 -10q-94 0 -175 48l66 157q59 -42 119 -42q42 0 75 31q27 27 41 73q-48 -24 -94 -24q-67 0 -108.5 42.5t-41.5 124.5q0 70 24.5 138t65.5 109q68 68 168 68q97 0 150 -53q57 -57 57 -167q0 -106 -38 -231.5t-102 -189.5q-84 -84 -207 -84zM267 368q17 0 30 13
q17 17 28.5 57.5t11.5 74.5q0 29 -12 41q-10 10 -24 10q-17 0 -30 -13q-17 -17 -28.5 -57.5t-11.5 -74.5q0 -51 36 -51z" />
    <glyph glyph-name="colon" unicode=":" horiz-adv-x="238" 
d="M-39 0l44 198h197l-44 -198h-197zM35 348l44 198h198l-44 -198h-198z" />
    <glyph glyph-name="semicolon" unicode=";" horiz-adv-x="238" 
d="M-60 -146l-4 71q99 13 116 75h-91l44 198h197l-38 -176q-19 -84 -74 -123.5t-150 -44.5zM35 348l44 198h198l-44 -198h-198z" />
    <glyph glyph-name="less" unicode="&#x3c;" horiz-adv-x="499" 
d="M412 81l-377 186l38 170l457 185l-43 -195l-258 -83l222 -84z" />
    <glyph glyph-name="equal" unicode="=" horiz-adv-x="499" 
d="M6 146l36 164h431l-36 -164h-431zM60 394l36 164h432l-36 -164h-432z" />
    <glyph glyph-name="greater" unicode="&#x3e;" horiz-adv-x="499" 
d="M4 81l43 196l258 82l-222 85l39 178l377 -185l-38 -170z" />
    <glyph glyph-name="question" unicode="?" horiz-adv-x="436" 
d="M124 226l20 181l7 8q126 14 126 74q0 41 -49 41q-44 0 -104 -37l-43 163q98 53 195 53q94 0 149 -47t55 -127q0 -81 -49 -139.5t-145 -81.5l-40 -88h-122zM36 0l40 179h197l-39 -179h-198z" />
    <glyph glyph-name="at" unicode="@" horiz-adv-x="704" 
d="M310 -141q-135 0 -216 85.5t-81 234.5q0 138 51.5 259.5t147 197.5t213.5 76q129 0 204 -81t75 -213q0 -153 -62.5 -261.5t-156.5 -108.5q-91 0 -114 89q-55 -84 -127 -84q-44 0 -73 34t-29 99q0 75 27.5 154t76.5 134.5t103 55.5q67 0 86 -71l17 65l138 -28l-79 -300
q-10 -33 -10 -55q0 -31 31 -31q28 0 58 41t51 113.5t21 152.5q0 115 -64 184.5t-177 69.5q-101 0 -186 -70t-131.5 -182t-46.5 -237q0 -131 68.5 -206.5t188.5 -75.5q87 0 165 45l18 -35q-90 -51 -187 -51zM316 167q30 0 60 76t30 131q0 36 -25 36q-31 0 -61 -76.5
t-30 -131.5q0 -35 26 -35z" />
    <glyph glyph-name="A" unicode="A" horiz-adv-x="563" 
d="M-70 0l336 702h219l31 -702h-197v107h-143l-45 -107h-201zM241 259h80l2 197z" />
    <glyph glyph-name="B" unicode="B" horiz-adv-x="528" 
d="M-34 0l152 700h200q120 0 179.5 -45t59.5 -119q0 -134 -133 -187q83 -42 83 -130q0 -102 -76.5 -160.5t-226.5 -58.5h-238zM191 167h46q36 0 56.5 19t20.5 49q0 47 -62 47h-36zM246 422h39q39 0 58.5 18.5t19.5 47.5q0 45 -62 45h-31z" />
    <glyph glyph-name="C" unicode="C" horiz-adv-x="494" 
d="M270 -12q-114 0 -181.5 75t-67.5 206q0 101 33.5 197t98.5 161q85 85 201 85q63 0 117.5 -24t89.5 -65l-117 -147q-38 50 -87 50q-36 0 -62 -26q-36 -36 -54.5 -98.5t-18.5 -114.5q0 -112 80 -112q39 0 89 40l69 -158q-89 -69 -190 -69z" />
    <glyph glyph-name="D" unicode="D" horiz-adv-x="558" 
d="M-34 0l152 700h151q160 0 236 -76q65 -65 65 -184q0 -83 -31 -183.5t-89 -158.5q-98 -98 -280 -98h-204zM346 502q-24 22 -66 22h-6l-74 -348h9q58 0 94 36q32 32 50.5 94.5t18.5 115.5q0 54 -26 80z" />
    <glyph glyph-name="E" unicode="E" horiz-adv-x="467" 
d="M-34 0l152 700h419l-39 -176h-224l-20 -89h205l-36 -166h-205l-20 -93h229l-39 -176h-422z" />
    <glyph glyph-name="F" unicode="F" horiz-adv-x="446" 
d="M-34 0l152 700h407l-39 -179h-212l-21 -96h193l-38 -169h-192l-55 -256h-195z" />
    <glyph glyph-name="G" unicode="G" horiz-adv-x="545" 
d="M277 -13q-117 0 -187 69t-70 193q0 93 34.5 199.5t97.5 169.5q94 94 223 94q126 0 208 -86l-117 -147q-40 50 -97 50q-42 0 -71 -29q-41 -41 -61 -113.5t-20 -124.5q0 -105 73 -105q17 0 29 5l23 104h-67l32 154h247l-84 -385q-94 -48 -193 -48z" />
    <glyph glyph-name="H" unicode="H" horiz-adv-x="558" 
d="M-34 0l152 700h195l-56 -258h118l56 258h195l-152 -700h-195l57 262h-118l-57 -262h-195z" />
    <glyph glyph-name="I" unicode="I" horiz-adv-x="249" 
d="M-32 0l152 700h195l-152 -700h-195z" />
    <glyph glyph-name="J" unicode="J" horiz-adv-x="402" 
d="M138 -11q-102 0 -179 67l81 153q37 -39 72 -39q25 0 41 16q18 18 28 63l97 451h195l-104 -477q-27 -123 -83 -179q-55 -55 -148 -55z" />
    <glyph glyph-name="K" unicode="K" horiz-adv-x="533" 
d="M-34 0l152 700h195l-51 -235l148 235h216l-214 -314l67 -386h-204l-30 227l-50 -68l-34 -159h-195z" />
    <glyph glyph-name="L" unicode="L" horiz-adv-x="426" 
d="M-34 0l152 700h195l-112 -521h194l-40 -179h-389z" />
    <glyph glyph-name="M" unicode="M" horiz-adv-x="638" 
d="M-34 0l152 700h185l55 -216l150 216h198l-152 -700h-191l72 332l-149 -209h-2l-56 209l-73 -332h-189z" />
    <glyph glyph-name="N" unicode="N" horiz-adv-x="570" 
d="M-34 0l152 700h188l77 -293l65 293h190l-152 -700h-180l-82 309l-68 -309h-190z" />
    <glyph glyph-name="O" unicode="O" horiz-adv-x="576" 
d="M352 715q107 0 172 -67.5t65 -202.5q0 -95 -35 -202.5t-103 -175.5q-82 -82 -193 -82q-107 0 -172 67.5t-65 202.5q0 95 35 202.5t104 176.5q81 81 192 81zM270 161q23 0 44 21q35 35 58 118.5t23 147.5q0 91 -55 91q-23 0 -44 -21q-35 -35 -58 -118.5t-23 -147.5
q0 -91 55 -91z" />
    <glyph glyph-name="P" unicode="P" horiz-adv-x="504" 
d="M-34 0l152 700h169q139 0 205 -66q50 -50 50 -134q0 -61 -19.5 -120t-58.5 -98q-84 -84 -228 -84h-33l-43 -198h-194zM331 521q-15 15 -44 15h-11l-39 -180h12q42 0 65 23q34 34 34 95q0 30 -17 47z" />
    <glyph glyph-name="Q" unicode="Q" horiz-adv-x="578" 
d="M352 715q107 0 172 -67.5t65 -202.5q0 -73 -24 -160.5t-68 -155.5l42 -91l-141 -64l-19 44q-59 -31 -121 -31q-108 0 -172.5 67t-64.5 201q0 95 35 202.5t104 176.5q81 81 192 81zM269 156q15 0 30 9l-41 88l117 52q21 79 21 143q0 91 -55 91q-23 0 -44 -21
q-35 -35 -59 -122t-24 -147q0 -93 55 -93z" />
    <glyph glyph-name="R" unicode="R" horiz-adv-x="529" 
d="M265 0l-41 209q-3 0 -7.5 -0.5t-6.5 -0.5h-5l-45 -208h-194l152 700h173q155 0 220 -65q49 -49 49 -135q0 -121 -70 -191q-31 -31 -78 -52l60 -257h-207zM238 358h23q42 0 67 25q15 15 23.5 41.5t8.5 47.5q0 32 -16 46q-15 15 -46 15h-22z" />
    <glyph glyph-name="S" unicode="S" horiz-adv-x="474" 
d="M198 -12q-129 0 -237 91l87 159q82 -75 154 -75q23 0 36.5 10.5t13.5 28.5q0 16 -12.5 28.5t-50.5 38.5q-66 45 -97.5 90.5t-31.5 108.5q0 108 69 175q69 69 184 69q119 0 215 -82l-96 -150q-63 57 -124 57q-23 0 -36.5 -10.5t-13.5 -27.5q0 -16 14 -30t61 -48
q60 -42 89 -85t29 -109q0 -102 -69 -171q-68 -68 -184 -68z" />
    <glyph glyph-name="T" unicode="T" horiz-adv-x="475" 
d="M81 0l113 521h-131l40 179h457l-40 -179h-131l-113 -521h-195z" />
    <glyph glyph-name="U" unicode="U" horiz-adv-x="550" 
d="M235 -12q-107 0 -166 50.5t-59 136.5q0 51 11 98l93 427h195l-97 -447q-6 -30 -6 -42q0 -22 13.5 -34.5t37.5 -12.5q26 0 42 16q17 17 27 59l100 461h195l-101 -467q-26 -116 -84 -174q-71 -71 -201 -71z" />
    <glyph glyph-name="V" unicode="V" horiz-adv-x="544" 
d="M110 -2l-29 702h203l-6 -385l164 385h206l-336 -702h-202z" />
    <glyph glyph-name="W" unicode="W" horiz-adv-x="801" 
d="M82 -2l4 702h202l-22 -364l144 365h163l-12 -365l133 364h205l-300 -702h-190l-1 307l-135 -307h-191z" />
    <glyph glyph-name="X" unicode="X" horiz-adv-x="519" 
d="M-70 0l230 368l-70 332h200l23 -178l95 178h206l-218 -352l75 -348h-201l-26 199l-108 -199h-206z" />
    <glyph glyph-name="Y" unicode="Y" horiz-adv-x="519" 
d="M99 0l55 252l-76 448h198l20 -232l119 232h210l-278 -457l-53 -243h-195z" />
    <glyph glyph-name="Z" unicode="Z" horiz-adv-x="469" 
d="M-45 0l35 156l278 368h-193l39 176h434l-34 -156l-278 -368h198l-38 -176h-441z" />
    <glyph glyph-name="bracketleft" unicode="[" horiz-adv-x="329" 
d="M-52 -130l181 830h274l-27 -125h-110l-126 -580h110l-28 -125h-274z" />
    <glyph glyph-name="backslash" unicode="\" horiz-adv-x="392" 
d="M205 -107l-116 884h134l117 -884h-135z" />
    <glyph glyph-name="bracketright" unicode="]" horiz-adv-x="329" 
d="M386 700l-181 -830h-274l27 125h110l126 580h-110l28 125h274z" />
    <glyph glyph-name="asciicircum" unicode="^" 
d="M123 485l148 214h143l56 -214h-120l-28 113l-75 -113h-124z" />
    <glyph glyph-name="underscore" unicode="_" horiz-adv-x="536" 
d="M-95 -154l27 122h539l-26 -122h-540z" />
    <glyph glyph-name="grave" unicode="`" 
d="M318 572l-113 106l178 43l44 -149h-109z" />
    <glyph glyph-name="a" unicode="a" horiz-adv-x="465" 
d="M93 -11q-51 0 -79.5 32.5t-28.5 92.5q0 49 16 98t45 78q44 46 124 46q47 0 96 -22l2 8q4 16 4 26q0 51 -66 51q-47 0 -113 -23l-17 153q96 27 183 27q98 0 152 -41.5t54 -121.5q0 -35 -9 -74l-69 -319h-189l9 43q-56 -54 -114 -54zM186 107q16 0 30 14.5t20 40.5l12 61
q-16 8 -34 8q-19 0 -31 -12q-24 -24 -24 -75q0 -37 27 -37z" />
    <glyph glyph-name="b" unicode="b" horiz-adv-x="510" 
d="M287 -12q-81 0 -119 75l-14 -63h-190l156 720h190l-50 -233q58 71 126 71q57 0 89 -42t32 -121q0 -86 -29.5 -196t-83.5 -164q-47 -47 -107 -47zM233 151q15 0 28 13q23 23 38.5 79t15.5 95q0 57 -34 57q-15 0 -28 -13q-23 -23 -38.5 -79t-15.5 -95q0 -57 34 -57z" />
    <glyph glyph-name="c" unicode="c" horiz-adv-x="404" 
d="M212 -14q-94 0 -151 61t-57 165q0 69 23.5 144t79.5 131q72 72 169 72q103 0 170 -83l-102 -128q-28 38 -60 38q-24 0 -44 -20q-22 -22 -34.5 -60t-12.5 -73q0 -40 17 -58t41 -18q31 0 64 28l59 -140q-70 -59 -162 -59z" />
    <glyph glyph-name="d" unicode="d" horiz-adv-x="510" 
d="M236 0l13 59q-58 -71 -126 -71q-57 0 -89 42t-32 121q0 86 29.5 196t83.5 164q47 47 107 47q82 0 119 -75l51 237h190l-156 -720h-190zM228 151q15 0 28 13q23 23 38.5 79t15.5 95q0 57 -34 57q-15 0 -28 -13q-23 -23 -38.5 -79t-15.5 -95q0 -57 34 -57z" />
    <glyph glyph-name="e" unicode="e" horiz-adv-x="469" 
d="M444 208h-260q0 -64 72 -64q56 0 110 33l45 -139q-81 -52 -186 -52t-162 58.5t-57 161.5q0 70 27 151t78 132q71 71 170 71q92 0 139 -54.5t47 -148.5q0 -61 -23 -149zM239 395q-21 -21 -38 -82h91q6 29 6 50q0 45 -31 45q-15 0 -28 -13z" />
    <glyph glyph-name="f" unicode="f" horiz-adv-x="319" 
d="M-10 0l86 396h-40l33 150h39l4 17q16 74 56 114q46 46 132 46q54 0 110 -16l-29 -130q-23 7 -42 7q-36 0 -43 -36l-1 -5h79l-32 -147h-77l-86 -396h-189z" />
    <glyph glyph-name="g" unicode="g" horiz-adv-x="508" 
d="M171 -143q-116 0 -207 35l45 149q81 -38 147 -38q48 0 72 23q21 21 31 68l6 23q-60 -71 -130 -71q-57 0 -90 39t-33 114q0 78 28 172.5t75 141.5q44 44 103 44q84 0 123 -74l13 63h191l-98 -456q-26 -115 -80 -169q-64 -64 -196 -64zM238 195q15 0 28 13q20 20 31.5 63.5
t11.5 73.5q0 54 -35 54q-15 0 -28 -13q-20 -20 -31.5 -63.5t-11.5 -74.5q0 -53 35 -53z" />
    <glyph glyph-name="h" unicode="h" horiz-adv-x="491" 
d="M-36 0l156 720h190l-51 -236q60 74 132 74q55 0 83.5 -31.5t28.5 -83.5q0 -32 -8 -68l-81 -375h-191l71 328q5 25 5 33q0 28 -27 28q-33 0 -44 -47l-74 -342h-190z" />
    <glyph glyph-name="i" unicode="i" horiz-adv-x="241" 
d="M-34 0l118 546h191l-118 -546h-191zM90 579l31 141h194l-31 -141h-194z" />
    <glyph glyph-name="j" unicode="j" horiz-adv-x="243" 
d="M-43 -144q-42 0 -78 7l25 117q10 -2 20 -2q23 0 33.5 11t17.5 43l111 514h191l-112 -519q-21 -96 -69 -133.5t-139 -37.5zM92 579l31 141h194l-31 -141h-194z" />
    <glyph glyph-name="k" unicode="k" horiz-adv-x="475" 
d="M-36 0l156 720h190l-71 -327l100 153h206l-166 -237l48 -309h-194l-15 176l-36 -45l-28 -131h-190z" />
    <glyph glyph-name="l" unicode="l" horiz-adv-x="241" 
d="M-34 0l156 720h190l-156 -720h-190z" />
    <glyph glyph-name="m" unicode="m" horiz-adv-x="744" 
d="M-36 0l118 546h189l-12 -61q59 73 134 73q82 0 101 -77q65 77 148 77q56 0 84.5 -31t28.5 -83q0 -26 -7 -63l-81 -381h-189l72 331q4 22 4 30q0 28 -26 28q-33 0 -44 -47l-74 -342h-189l72 331q4 22 4 30q0 28 -26 28q-33 0 -44 -47l-74 -342h-189z" />
    <glyph glyph-name="n" unicode="n" horiz-adv-x="491" 
d="M-36 0l118 546h190l-13 -62q60 74 132 74q55 0 83.5 -31.5t28.5 -83.5q0 -32 -8 -68l-81 -375h-191l71 328q5 25 5 33q0 28 -27 28q-33 0 -44 -47l-74 -342h-190z" />
    <glyph glyph-name="o" unicode="o" horiz-adv-x="491" 
d="M281 560q99 0 151.5 -57.5t52.5 -156.5q0 -79 -26.5 -159t-75.5 -129q-72 -72 -172 -72q-99 0 -151.5 57.5t-52.5 156.5q0 79 26.5 159t75.5 129q72 72 172 72zM223 146q15 0 28 13q22 22 37.5 80.5t15.5 102.5q0 58 -35 58q-15 0 -28 -13q-22 -22 -37.5 -80.5
t-15.5 -102.5q0 -58 35 -58z" />
    <glyph glyph-name="p" unicode="p" horiz-adv-x="510" 
d="M287 -12q-81 0 -119 75l-44 -202h-190l148 685h190l-12 -59q58 71 126 71q57 0 89 -42t32 -121q0 -86 -29.5 -196t-83.5 -164q-47 -47 -107 -47zM233 151q15 0 28 13q23 23 38.5 79t15.5 95q0 57 -34 57q-15 0 -28 -13q-23 -23 -38.5 -79t-15.5 -95q0 -57 34 -57z" />
    <glyph glyph-name="q" unicode="q" horiz-adv-x="510" 
d="M123 -12q-57 0 -89 42t-32 121q0 86 29.5 196t83.5 164q47 47 107 47q82 0 119 -75l14 63h190l-149 -685h-190l43 198q-58 -71 -126 -71zM228 151q15 0 28 13q23 23 38.5 79t15.5 95q0 57 -34 57q-15 0 -28 -13q-23 -23 -38.5 -79t-15.5 -95q0 -57 34 -57z" />
    <glyph glyph-name="r" unicode="r" horiz-adv-x="331" 
d="M-36 0l118 546h190l-20 -92q57 104 134 99l-48 -218h-9q-54 0 -85.5 -31.5t-45.5 -98.5l-44 -205h-190z" />
    <glyph glyph-name="s" unicode="s" horiz-adv-x="396" 
d="M167 -12q-119 0 -209 80l79 140q72 -70 126 -70q29 0 29 22q0 3 -0.5 5t-1.5 4t-2.5 4t-4.5 4.5t-5.5 4.5t-7 5t-8 5.5t-10.5 7t-12 8.5q-54 37 -79 72t-25 84q0 83 54.5 138.5t147.5 55.5q105 0 193 -66l-80 -141q-23 23 -54.5 40t-55.5 17q-27 0 -27 -20q0 -2 0.5 -4
t1.5 -4t2 -3.5t3.5 -4t5 -4t7 -5t8 -5.5t10.5 -6.5t12 -8.5q54 -37 80.5 -72t26.5 -86q0 -81 -53.5 -139t-150.5 -58z" />
    <glyph glyph-name="t" unicode="t" horiz-adv-x="327" 
d="M159 -11q-68 0 -106.5 28t-38.5 84q0 23 8 60l51 235h-40l33 150h40l28 130h189l-28 -130h81l-33 -150h-81l-42 -194q-4 -18 -4 -31q0 -23 30 -23q20 0 44 8l-33 -152q-52 -15 -98 -15z" />
    <glyph glyph-name="u" unicode="u" horiz-adv-x="491" 
d="M102 -12q-55 0 -83.5 31.5t-28.5 83.5q0 32 8 68l81 375h191l-71 -328q-5 -25 -5 -33q0 -28 27 -28q33 0 44 47l74 342h190l-118 -546h-190l13 62q-60 -74 -132 -74z" />
    <glyph glyph-name="v" unicode="v" horiz-adv-x="483" 
d="M90 -3l-35 549h193l-9 -282l113 282h197l-272 -549h-187z" />
    <glyph glyph-name="w" unicode="w" horiz-adv-x="662" 
d="M60 -3l-2 549h183l-16 -244l91 245h147l-13 -246l89 245h186l-240 -549h-162l-3 224l-95 -224h-165z" />
    <glyph glyph-name="x" unicode="x" horiz-adv-x="471" 
d="M249 546l17 -126l70 126h198l-188 -278l72 -268h-189l-19 135l-74 -135h-198l192 284l-70 262h189z" />
    <glyph glyph-name="y" unicode="y" horiz-adv-x="481" 
d="M91 12l-34 534h189l-5 -284l113 284h194l-257 -531q-42 -88 -85 -123.5t-115 -35.5q-67 0 -127 36l51 136q32 -23 55 -23q13 0 21 7z" />
    <glyph glyph-name="z" unicode="z" horiz-adv-x="413" 
d="M-45 0l29 134l217 257h-157l33 155h384l-29 -134l-217 -257h162l-34 -155h-388z" />
    <glyph glyph-name="braceleft" unicode="{" horiz-adv-x="380" 
d="M265 -135q-217 22 -217 145q0 38 24 90q22 53 22 77q0 45 -71 45h-19l28 127h18q57 0 80 23q26 26 26 115q0 107 50 157q66 64 235 63l4 -121q-74 -1 -103 -30q-16 -16 -20.5 -40.5t-4.5 -71.5q0 -87 -34 -121t-108 -42q88 -22 88 -94q0 -33 -23 -84q-19 -41 -19 -62
q0 -23 17.5 -37t63.5 -22z" />
    <glyph glyph-name="bar" unicode="|" horiz-adv-x="258" 
d="M-19 -107l193 884h130l-193 -884h-130z" />
    <glyph glyph-name="braceright" unicode="}" horiz-adv-x="380" 
d="M120 706q217 -22 217 -145q0 -38 -24 -90q-22 -53 -22 -77q0 -45 71 -45h19l-28 -127h-18q-57 0 -80 -23q-26 -26 -26 -115q0 -107 -50 -157q-66 -64 -235 -63l-4 121q74 1 103 30q16 16 20.5 40.5t4.5 71.5q0 87 34 121t108 42q-88 22 -88 94q0 33 23 84q19 41 19 62
q0 24 -17.5 37.5t-63.5 21.5z" />
    <glyph glyph-name="asciitilde" unicode="~" horiz-adv-x="399" 
d="M104 238l-79 22q19 63 51 95.5t69 32.5q33 0 71 -20q43 -17 53 -17q25 0 44 40l79 -23q-19 -62 -50.5 -94.5t-68.5 -32.5q-31 0 -72 19q-41 18 -53 18q-24 0 -44 -40z" />
    <glyph glyph-name="uni00A0" unicode="&#xa0;" horiz-adv-x="168" 
 />
    <glyph glyph-name="exclamdown" unicode="&#xa1;" horiz-adv-x="257" 
d="M217 474l-21 -419l-11 -55h-225l11 55l157 419h89zM320 700l-39 -179h-198l39 179h198z" />
    <glyph glyph-name="cent" unicode="&#xa2;" horiz-adv-x="418" 
d="M282 705h119l-22 -81q51 -20 90 -67l-97 -121q-29 42 -66 42q-27 0 -49 -22q-25 -25 -38.5 -66.5t-13.5 -79.5q0 -44 19 -63.5t46 -19.5q30 0 71 32l56 -133q-68 -58 -159 -59l-19 -73h-119l26 100q-99 57 -99 199q0 69 23.5 144t79.5 131q59 59 134 69z" />
    <glyph glyph-name="sterling" unicode="&#xa3;" horiz-adv-x="474" 
d="M-37 0l27 127l73 32l23 104h-64l33 150h63l11 55q25 120 84 181q65 63 166 63q89 0 168 -56l-84 -149q-36 29 -70 29q-27 0 -45 -18t-30 -66l-8 -39h136l-32 -150h-136l-20 -94h184l-36 -169h-443z" />
    <glyph glyph-name="yen" unicode="&#xa5;" horiz-adv-x="524" 
d="M103 0l20 94h-130l28 130h130l9 41h-130l29 130h90l-69 305h192l29 -223l113 223h209l-201 -305h89l-28 -130h-130l-9 -41h130l-28 -130h-131l-20 -94h-192z" />
    <glyph glyph-name="section" unicode="&#xa7;" horiz-adv-x="488" 
d="M494 372q0 -52 -32.5 -86.5t-81.5 -50.5q29 -36 29 -84q0 -72 -53 -118t-141 -46q-112 0 -220 73l72 124q25 -20 64.5 -38.5t67.5 -18.5q31 0 31 23q0 11 -13 20.5t-54 26.5q-75 32 -105.5 60t-30.5 71q0 52 32 86t82 51q-29 36 -29 84q0 72 53 118t141 46q112 0 220 -73
l-72 -124q-25 20 -64.5 38.5t-67.5 18.5q-31 0 -31 -23q0 -11 13 -20.5t54 -26.5q75 -32 105.5 -60t30.5 -71zM181 368q0 -27 72 -59q31 -13 48 -13q16 0 27.5 10.5t11.5 25.5q0 27 -72 59q-31 13 -48 13q-16 0 -27.5 -10.5t-11.5 -25.5z" />
    <glyph glyph-name="dieresis" unicode="&#xa8;" 
d="M160 572l29 132h141l-29 -132h-141zM330 572l29 132h140l-29 -132h-140z" />
    <glyph glyph-name="copyright" unicode="&#xa9;" horiz-adv-x="601" 
d="M316 141q-70 0 -111 43.5t-41 122.5q0 56 20 111.5t57 92.5q54 51 122 51q71 0 122 -53l-71 -89q-19 29 -48 29q-22 0 -39 -17q-19 -19 -29.5 -53.5t-10.5 -62.5q0 -61 49 -61q24 0 49 21l42 -96q-51 -39 -111 -39zM598 440q0 -100 -31.5 -201t-101.5 -171
q-83 -83 -197 -83q-107 0 -169.5 72.5t-62.5 202.5q0 100 31.5 201t101.5 171q83 83 197 83q106 0 169 -73t63 -202zM75 261q0 -112 51.5 -175.5t144.5 -63.5q97 0 167 70q63 63 92 159t29 188q0 112 -51.5 175.5t-144.5 63.5q-97 0 -167 -70q-63 -63 -92 -159t-29 -188z
" />
    <glyph glyph-name="ordfeminine" unicode="&#xaa;" horiz-adv-x="288" 
d="M124 399q-27 0 -42.5 18t-15.5 51q0 15 5 33.5t15.5 39t32.5 34t51 13.5q23 0 51 -11l1 5q1 6 1 13q0 26 -32 26q-26 0 -63 -17l-9 83q49 19 106 19q50 0 77 -22t27 -63q0 -13 -4 -35l-39 -181h-103l6 26q-32 -32 -65 -32zM177 464q21 0 27 31l7 32q-10 5 -19 5
q-14 0 -22 -17t-8 -31q0 -20 15 -20zM25 274l18 85h238l-19 -85h-237z" />
    <glyph glyph-name="guillemotleft" unicode="&#xab;" horiz-adv-x="474" 
d="M96 40l-88 214l12 51l171 204l98 -59l-119 -178l46 -186zM298 38l-93 229l2 9l192 228l99 -59l-123 -181l43 -179z" />
    <glyph glyph-name="registered" unicode="&#xae;" horiz-adv-x="296" 
d="M230 709q51 0 82.5 -35t31.5 -92q0 -47 -16.5 -97t-47.5 -80q-42 -42 -99 -42q-52 0 -83 35t-31 92q0 47 16.5 97t46.5 80q42 42 100 42zM182 380q51 0 85 36q28 28 43 74.5t15 89.5q0 51 -25.5 81.5t-71.5 30.5q-50 0 -84 -36q-29 -28 -44 -74.5t-15 -89.5q0 -50 26 -81
t71 -31zM187 499l-12 -58h-55l41 195h50q77 0 77 -58q0 -46 -42 -64l18 -73h-59l-12 58h-6zM197 543h6q13 0 20 7q9 9 9 22q0 17 -18 17h-7z" />
    <glyph glyph-name="macron" unicode="&#xaf;" 
d="M164 575l25 110h303l-25 -110h-303z" />
    <glyph glyph-name="degree" unicode="&#xb0;" horiz-adv-x="331" 
d="M235 708q64 0 98.5 -40.5t34.5 -103.5q0 -47 -17 -97.5t-50 -83.5q-43 -43 -103 -43q-64 0 -98.5 40.5t-34.5 103.5q0 47 16.5 97t50.5 84q43 43 103 43zM202 441q12 0 22 10q16 16 25 51t9 62q0 43 -27 43q-12 0 -22 -10q-16 -16 -25 -51t-9 -62q0 -43 27 -43z" />
    <glyph glyph-name="plusminus" unicode="&#xb1;" horiz-adv-x="499" 
d="M151 191l31 143h-139l34 156h139l31 143h164l-32 -143h139l-34 -156h-139l-31 -143h-163zM-30 0l32 146h440l-32 -146h-440z" />
    <glyph glyph-name="acute" unicode="&#xb4;" 
d="M199 572l110 149l169 -43l-160 -106h-119z" />
    <glyph glyph-name="paragraph" unicode="&#xb6;" horiz-adv-x="426" 
d="M172 0l48 220q-87 14 -131 58q-47 47 -47 126q0 132 80 212q84 84 231 84h142l-151 -700h-172z" />
    <glyph glyph-name="periodcentered" unicode="&#xb7;" horiz-adv-x="235" 
d="M5 216l44 198h198l-44 -198h-198z" />
    <glyph glyph-name="cedilla" unicode="&#xb8;" 
d="M183 -145l-159 46l117 119h122z" />
    <glyph glyph-name="ordmasculine" unicode="&#xba;" horiz-adv-x="288" 
d="M26 274l18 85h227l-18 -85h-227zM169 516q0 -33 20 -33q8 0 15 7q12 12 20 42.5t8 52.5q0 33 -20 33q-8 0 -15 -7q-12 -12 -20 -42.5t-8 -52.5zM331 584q0 -95 -57 -152q-38 -38 -91 -38q-55 0 -84 33.5t-29 89.5q0 95 57 152q38 38 91 38q55 0 84 -33.5t29 -89.5z" />
    <glyph glyph-name="guillemotright" unicode="&#xbb;" horiz-adv-x="474" 
d="M378 507l88 -214l-12 -51l-171 -204l-98 59l119 178l-46 186zM176 509l93 -229l-2 -9l-192 -228l-99 59l123 181l-43 179z" />
    <glyph glyph-name="questiondown" unicode="&#xbf;" horiz-adv-x="436" 
d="M347 474l-20 -181l-7 -8q-126 -14 -126 -74q0 -41 49 -41q44 0 104 37l43 -163q-98 -53 -195 -53q-94 0 -149 47t-55 127q0 81 49 139.5t145 81.5l40 88h122zM435 700l-40 -179h-197l39 179h198z" />
    <glyph glyph-name="Agrave" unicode="&#xc0;" horiz-adv-x="563" 
d="M-70 0l336 702h219l31 -702h-197v107h-143l-45 -107h-201zM241 259h80l2 197zM314 735l-107 89l194 38l41 -127h-128z" />
    <glyph glyph-name="Aacute" unicode="&#xc1;" horiz-adv-x="563" 
d="M-70 0l336 702h219l31 -702h-197v107h-143l-45 -107h-201zM241 259h80l2 197zM310 735l98 127l188 -38l-147 -89h-139z" />
    <glyph glyph-name="Acircumflex" unicode="&#xc2;" horiz-adv-x="563" 
d="M-70 0l336 702h219l31 -702h-197v107h-143l-45 -107h-201zM241 259h80l2 197zM216 735l113 117h151l62 -117h-107l-44 38l-61 -38h-114z" />
    <glyph glyph-name="Atilde" unicode="&#xc3;" horiz-adv-x="563" 
d="M-70 0l336 702h219l31 -702h-197v107h-143l-45 -107h-201zM241 259h80l2 197zM294 729l-82 16q35 134 114 134q26 0 75 -18q42 -15 56 -15q25 0 41 36l82 -16q-35 -134 -114 -134q-24 0 -75 18q-47 15 -56 15q-25 0 -41 -36z" />
    <glyph glyph-name="Adieresis" unicode="&#xc4;" horiz-adv-x="563" 
d="M-70 0l336 702h219l31 -702h-197v107h-143l-45 -107h-201zM241 259h80l2 197zM226 735l27 124h143l-27 -124h-143zM399 735l27 124h144l-28 -124h-143z" />
    <glyph glyph-name="Aring" unicode="&#xc5;" horiz-adv-x="563" 
d="M-70 0l330 693l6 -2q-9 19 -9 42q0 50 39 86t97 36q47 0 79.5 -27.5t32.5 -69.5q0 -35 -21 -66l2 1l30 -693h-197v107h-143l-45 -107h-201zM375 688q29 0 47.5 19t18.5 44q0 22 -14.5 35.5t-39.5 13.5q-29 0 -47.5 -19t-18.5 -44q0 -22 14.5 -35.5t39.5 -13.5zM241 259
h80l2 197z" />
    <glyph glyph-name="AE" unicode="&#xc6;" horiz-adv-x="769" 
d="M-74 0l364 700h549l-39 -176h-219l-19 -89h199l-36 -166h-199l-20 -93h223l-39 -176h-415l23 107h-123l-50 -107h-199zM247 259h84l59 271h-11z" />
    <glyph glyph-name="Ccedilla" unicode="&#xc7;" horiz-adv-x="494" 
d="M210 -145l-159 46l108 110q-65 30 -101.5 96.5t-36.5 161.5q0 101 33.5 197t98.5 161q85 85 201 85q63 0 117.5 -24t89.5 -65l-117 -147q-38 50 -87 50q-36 0 -62 -26q-36 -36 -54.5 -98.5t-18.5 -114.5q0 -112 80 -112q39 0 89 40l69 -158q-87 -68 -186 -69z" />
    <glyph glyph-name="Egrave" unicode="&#xc8;" horiz-adv-x="467" 
d="M264 727l-107 89l194 38l41 -127h-128zM-34 0l152 700h419l-39 -176h-224l-20 -89h205l-36 -166h-205l-20 -93h229l-39 -176h-422z" />
    <glyph glyph-name="Eacute" unicode="&#xc9;" horiz-adv-x="467" 
d="M261 727l98 127l188 -38l-147 -89h-139zM-34 0l152 700h419l-39 -176h-224l-20 -89h205l-36 -166h-205l-20 -93h229l-39 -176h-422z" />
    <glyph glyph-name="Ecircumflex" unicode="&#xca;" horiz-adv-x="467" 
d="M-34 0l152 700h419l-39 -176h-224l-20 -89h205l-36 -166h-205l-20 -93h229l-39 -176h-422zM168 727l113 117h151l62 -117h-107l-44 38l-61 -38h-114z" />
    <glyph glyph-name="Edieresis" unicode="&#xcb;" horiz-adv-x="467" 
d="M177 727l27 124h143l-27 -124h-143zM350 727l27 124h144l-28 -124h-143zM-34 0l152 700h419l-39 -176h-224l-20 -89h205l-36 -166h-205l-20 -93h229l-39 -176h-422z" />
    <glyph glyph-name="Igrave" unicode="&#xcc;" horiz-adv-x="249" 
d="M-32 0l152 700h195l-152 -700h-195zM154 727l-107 89l194 38l41 -127h-128z" />
    <glyph glyph-name="Iacute" unicode="&#xcd;" horiz-adv-x="249" 
d="M-32 0l152 700h195l-152 -700h-195zM152 727l98 127l188 -38l-147 -89h-139z" />
    <glyph glyph-name="Icircumflex" unicode="&#xce;" horiz-adv-x="249" 
d="M-32 0l152 700h195l-152 -700h-195zM58 727l113 117h151l62 -117h-107l-44 38l-61 -38h-114z" />
    <glyph glyph-name="Idieresis" unicode="&#xcf;" horiz-adv-x="249" 
d="M-32 0l152 700h195l-152 -700h-195zM67 727l27 124h143l-27 -124h-143zM240 727l27 124h144l-28 -124h-143z" />
    <glyph glyph-name="Eth" unicode="&#xd0;" horiz-adv-x="593" 
d="M12 275l34 154h48l59 271h151q160 0 236 -76q65 -65 65 -184q0 -83 -31 -183.5t-89 -158.5q-98 -98 -280 -98h-204l59 275h-48zM383 504q-25 23 -70 23h-8l-22 -100h56l-33 -150h-55l-22 -104h12q61 0 98 37q32 31 51 95t19 118q0 55 -26 81z" />
    <glyph glyph-name="Ntilde" unicode="&#xd1;" horiz-adv-x="570" 
d="M294 721l-82 16q35 134 114 134q26 0 75 -18q42 -15 56 -15q25 0 41 36l82 -16q-35 -134 -114 -134q-24 0 -75 18q-47 15 -56 15q-25 0 -41 -36zM-34 0l152 700h188l77 -293l65 293h190l-152 -700h-180l-82 309l-68 -309h-190z" />
    <glyph glyph-name="Ograve" unicode="&#xd2;" horiz-adv-x="576" 
d="M315 735l-107 89l194 38l41 -127h-128zM352 715q107 0 172 -67.5t65 -202.5q0 -95 -35 -202.5t-103 -175.5q-82 -82 -193 -82q-107 0 -172 67.5t-65 202.5q0 95 35 202.5t104 176.5q81 81 192 81zM270 161q23 0 44 21q35 35 58 118.5t23 147.5q0 91 -55 91q-23 0 -44 -21
q-35 -35 -58 -118.5t-23 -147.5q0 -91 55 -91z" />
    <glyph glyph-name="Oacute" unicode="&#xd3;" horiz-adv-x="576" 
d="M308 735l98 127l188 -38l-147 -89h-139zM352 715q107 0 172 -67.5t65 -202.5q0 -95 -35 -202.5t-103 -175.5q-82 -82 -193 -82q-107 0 -172 67.5t-65 202.5q0 95 35 202.5t104 176.5q81 81 192 81zM270 161q23 0 44 21q35 35 58 118.5t23 147.5q0 91 -55 91
q-23 0 -44 -21q-35 -35 -58 -118.5t-23 -147.5q0 -91 55 -91z" />
    <glyph glyph-name="Ocircumflex" unicode="&#xd4;" horiz-adv-x="576" 
d="M352 715q107 0 172 -67.5t65 -202.5q0 -95 -35 -202.5t-103 -175.5q-82 -82 -193 -82q-107 0 -172 67.5t-65 202.5q0 95 35 202.5t104 176.5q81 81 192 81zM270 161q23 0 44 21q35 35 58 118.5t23 147.5q0 91 -55 91q-23 0 -44 -21q-35 -35 -58 -118.5t-23 -147.5
q0 -91 55 -91zM217 735l113 117h151l62 -117h-107l-44 38l-61 -38h-114z" />
    <glyph glyph-name="Otilde" unicode="&#xd5;" horiz-adv-x="576" 
d="M295 729l-82 16q35 134 114 134q26 0 75 -18q42 -15 56 -15q25 0 41 36l82 -16q-35 -134 -114 -134q-24 0 -75 18q-46 15 -56 15q-25 0 -41 -36zM352 715q107 0 172 -67.5t65 -202.5q0 -95 -35 -202.5t-103 -175.5q-82 -82 -193 -82q-107 0 -172 67.5t-65 202.5
q0 95 35 202.5t104 176.5q81 81 192 81zM270 161q23 0 44 21q35 35 58 118.5t23 147.5q0 91 -55 91q-23 0 -44 -21q-35 -35 -58 -118.5t-23 -147.5q0 -91 55 -91z" />
    <glyph glyph-name="Odieresis" unicode="&#xd6;" horiz-adv-x="576" 
d="M227 735l27 124h143l-27 -124h-143zM400 735l27 124h144l-28 -124h-143zM352 715q107 0 172 -67.5t65 -202.5q0 -95 -35 -202.5t-103 -175.5q-82 -82 -193 -82q-107 0 -172 67.5t-65 202.5q0 95 35 202.5t104 176.5q81 81 192 81zM270 161q23 0 44 21q35 35 58 118.5
t23 147.5q0 91 -55 91q-23 0 -44 -21q-35 -35 -58 -118.5t-23 -147.5q0 -91 55 -91z" />
    <glyph glyph-name="multiply" unicode="&#xd7;" horiz-adv-x="499" 
d="M114 125l-98 125l138 111l-86 109l129 106l86 -110l135 113l99 -125l-137 -111l85 -110l-129 -107l-84 112z" />
    <glyph glyph-name="Oslash" unicode="&#xd8;" horiz-adv-x="576" 
d="M349 715q101 0 165 -58l40 48h96l-92 -107q31 -59 31 -141q0 -106 -33 -214.5t-101 -176.5q-81 -81 -195 -81q-103 0 -165 59l-39 -49h-97l91 110q-29 58 -29 138q0 106 33 214.5t101 176.5q81 81 194 81zM269 155q28 0 51 23q30 30 54 109.5t30 143.5l-187 -249
q16 -27 52 -27zM290 522q-29 -29 -52.5 -104.5t-31.5 -140.5l185 244q-17 24 -50 24q-28 0 -51 -23z" />
    <glyph glyph-name="Ugrave" unicode="&#xd9;" horiz-adv-x="550" 
d="M306 727l-107 89l194 38l41 -127h-128zM235 -12q-107 0 -166 50.5t-59 136.5q0 51 11 98l93 427h195l-97 -447q-6 -30 -6 -42q0 -22 13.5 -34.5t37.5 -12.5q26 0 42 16q17 17 27 59l100 461h195l-101 -467q-26 -116 -84 -174q-71 -71 -201 -71z" />
    <glyph glyph-name="Uacute" unicode="&#xda;" horiz-adv-x="550" 
d="M302 727l98 127l188 -38l-147 -89h-139zM235 -12q-107 0 -166 50.5t-59 136.5q0 51 11 98l93 427h195l-97 -447q-6 -30 -6 -42q0 -22 13.5 -34.5t37.5 -12.5q26 0 42 16q17 17 27 59l100 461h195l-101 -467q-26 -116 -84 -174q-71 -71 -201 -71z" />
    <glyph glyph-name="Ucircumflex" unicode="&#xdb;" horiz-adv-x="550" 
d="M235 -12q-107 0 -166 50.5t-59 136.5q0 51 11 98l93 427h195l-97 -447q-6 -30 -6 -42q0 -22 13.5 -34.5t37.5 -12.5q26 0 42 16q17 17 27 59l100 461h195l-101 -467q-26 -116 -84 -174q-71 -71 -201 -71zM209 727l113 117h151l62 -117h-107l-44 38l-61 -38h-114z" />
    <glyph glyph-name="Udieresis" unicode="&#xdc;" horiz-adv-x="550" 
d="M217 727l27 124h143l-27 -124h-143zM390 727l27 124h144l-28 -124h-143zM235 -12q-107 0 -166 50.5t-59 136.5q0 51 11 98l93 427h195l-97 -447q-6 -30 -6 -42q0 -22 13.5 -34.5t37.5 -12.5q26 0 42 16q17 17 27 59l100 461h195l-101 -467q-26 -116 -84 -174
q-71 -71 -201 -71z" />
    <glyph glyph-name="Yacute" unicode="&#xdd;" horiz-adv-x="519" 
d="M99 0l55 252l-76 448h198l20 -232l119 232h210l-278 -457l-53 -243h-195zM280 727l98 127l188 -38l-147 -89h-139z" />
    <glyph glyph-name="Thorn" unicode="&#xde;" horiz-adv-x="507" 
d="M-34 0l152 700h194l-20 -91q122 -5 180 -63q50 -50 50 -134q0 -61 -19.5 -120t-58.5 -98q-82 -82 -228 -82h-33l-23 -112h-194zM217 268h12q42 0 65 23q34 34 34 95q0 30 -17 47q-15 15 -44 15h-11z" />
    <glyph glyph-name="germandbls" unicode="&#xdf;" horiz-adv-x="520" 
d="M196 0l32 147q41 7 61.5 31t20.5 58q0 48 -49 61l26 122q34 10 52.5 38.5t18.5 62.5q0 47 -37 47q-42 0 -60 -84l-105 -483h-190l107 494q23 106 79 163q67 67 184 67q99 0 154.5 -49t55.5 -129q0 -71 -34 -121.5t-98 -74.5q81 -40 81 -131q0 -108 -78 -169.5t-221 -49.5
z" />
    <glyph glyph-name="agrave" unicode="&#xe0;" horiz-adv-x="465" 
d="M93 -11q-51 0 -79.5 32.5t-28.5 92.5q0 49 16 98t45 78q44 46 124 46q47 0 96 -22l2 8q4 16 4 26q0 51 -66 51q-47 0 -113 -23l-17 153q96 27 183 27q98 0 152 -41.5t54 -121.5q0 -35 -9 -74l-69 -319h-189l9 43q-56 -54 -114 -54zM186 107q16 0 30 14.5t20 40.5l12 61
q-16 8 -34 8q-19 0 -31 -12q-24 -24 -24 -75q0 -37 27 -37zM245 580l-113 106l178 43l44 -149h-109z" />
    <glyph glyph-name="aacute" unicode="&#xe1;" horiz-adv-x="465" 
d="M93 -11q-51 0 -79.5 32.5t-28.5 92.5q0 49 16 98t45 78q44 46 124 46q47 0 96 -22l2 8q4 16 4 26q0 51 -66 51q-47 0 -113 -23l-17 153q96 27 183 27q98 0 152 -41.5t54 -121.5q0 -35 -9 -74l-69 -319h-189l9 43q-56 -54 -114 -54zM186 107q16 0 30 14.5t20 40.5l12 61
q-16 8 -34 8q-19 0 -31 -12q-24 -24 -24 -75q0 -37 27 -37zM228 580l110 149l169 -43l-160 -106h-119z" />
    <glyph glyph-name="acircumflex" unicode="&#xe2;" horiz-adv-x="465" 
d="M93 -11q-51 0 -79.5 32.5t-28.5 92.5q0 49 16 98t45 78q44 46 124 46q47 0 96 -22l2 8q4 16 4 26q0 51 -66 51q-47 0 -113 -23l-17 153q96 27 183 27q98 0 152 -41.5t54 -121.5q0 -35 -9 -74l-69 -319h-189l9 43q-56 -54 -114 -54zM186 107q16 0 30 14.5t20 40.5l12 61
q-16 8 -34 8q-19 0 -31 -12q-24 -24 -24 -75q0 -37 27 -37zM132 580l125 134h135l65 -134h-99l-50 45l-69 -45h-107z" />
    <glyph glyph-name="atilde" unicode="&#xe3;" horiz-adv-x="465" 
d="M93 -11q-51 0 -79.5 32.5t-28.5 92.5q0 49 16 98t45 78q44 46 124 46q47 0 96 -22l2 8q4 16 4 26q0 51 -66 51q-47 0 -113 -23l-17 153q96 27 183 27q98 0 152 -41.5t54 -121.5q0 -35 -9 -74l-69 -319h-189l9 43q-56 -54 -114 -54zM186 107q16 0 30 14.5t20 40.5l12 61
q-16 8 -34 8q-19 0 -31 -12q-24 -24 -24 -75q0 -37 27 -37zM409 728l82 -17q-35 -133 -113 -133q-28 0 -72 17q-45 15 -56 15q-15 0 -23.5 -8t-17.5 -28l-82 17q35 133 113 133q27 0 73 -17q46 -16 55 -16q14 0 23 8t18 29z" />
    <glyph glyph-name="adieresis" unicode="&#xe4;" horiz-adv-x="465" 
d="M93 -11q-51 0 -79.5 32.5t-28.5 92.5q0 49 16 98t45 78q44 46 124 46q47 0 96 -22l2 8q4 16 4 26q0 51 -66 51q-47 0 -113 -23l-17 153q96 27 183 27q98 0 152 -41.5t54 -121.5q0 -35 -9 -74l-69 -319h-189l9 43q-56 -54 -114 -54zM186 107q16 0 30 14.5t20 40.5l12 61
q-16 8 -34 8q-19 0 -31 -12q-24 -24 -24 -75q0 -37 27 -37zM142 580l29 132h141l-29 -132h-141zM312 580l29 132h140l-29 -132h-140z" />
    <glyph glyph-name="aring" unicode="&#xe5;" horiz-adv-x="465" 
d="M93 -11q-51 0 -79.5 32.5t-28.5 92.5q0 49 16 98t45 78q44 46 124 46q47 0 96 -22l2 8q4 16 4 26q0 51 -66 51q-47 0 -113 -23l-17 153q96 27 183 27q98 0 152 -41.5t54 -121.5q0 -35 -9 -74l-69 -319h-189l9 43q-56 -54 -114 -54zM186 107q16 0 30 14.5t20 40.5l12 61
q-16 8 -34 8q-19 0 -31 -12q-24 -24 -24 -75q0 -37 27 -37zM435 704q0 -50 -35.5 -87.5t-91.5 -37.5q-44 0 -72.5 26t-28.5 70q0 49 35.5 86.5t91.5 37.5q43 0 72 -26t29 -69zM270 678q0 -19 11.5 -31.5t31.5 -12.5q25 0 42 18.5t17 47.5q0 19 -11.5 32t-31.5 13
q-25 0 -42 -19t-17 -48z" />
    <glyph glyph-name="ae" unicode="&#xe6;" horiz-adv-x="706" 
d="M462 -14q-125 0 -181 81q-72 -78 -167 -78q-59 0 -94 32.5t-35 90.5q0 50 16 99.5t45 78.5q44 46 124 46q47 0 96 -22l2 8q4 16 4 26q0 51 -66 51q-47 0 -113 -23l-17 153q96 27 183 27q95 0 142 -45q60 49 129 49q83 0 128.5 -55t45.5 -148q0 -61 -23 -149h-260
q0 -64 72 -64q56 0 110 33l45 -139q-81 -52 -186 -52zM191 112q31 0 60 37q-6 36 -2 77q-16 8 -34 8q-19 0 -31 -12q-25 -25 -25 -72q0 -38 32 -38zM476 395q-22 -21 -38 -82h91q6 29 6 50q0 45 -31 45q-15 0 -28 -13z" />
    <glyph glyph-name="ccedilla" unicode="&#xe7;" horiz-adv-x="404" 
d="M160 -145l-159 46l107 109q-104 56 -104 202q0 69 23.5 144t79.5 131q72 72 169 72q103 0 170 -83l-102 -128q-28 38 -60 38q-24 0 -44 -20q-22 -22 -34.5 -60t-12.5 -73q0 -40 17 -58t41 -18q31 0 64 28l59 -140q-66 -55 -151 -59z" />
    <glyph glyph-name="egrave" unicode="&#xe8;" horiz-adv-x="469" 
d="M444 208h-260q0 -64 72 -64q56 0 110 33l45 -139q-81 -52 -186 -52t-162 58.5t-57 161.5q0 70 27 151t78 132q71 71 170 71q92 0 139 -54.5t47 -148.5q0 -61 -23 -149zM250 580l-113 106l178 43l44 -149h-109zM239 395q-21 -21 -38 -82h91q6 29 6 50q0 45 -31 45
q-15 0 -28 -13z" />
    <glyph glyph-name="eacute" unicode="&#xe9;" horiz-adv-x="469" 
d="M444 208h-260q0 -64 72 -64q56 0 110 33l45 -139q-81 -52 -186 -52t-162 58.5t-57 161.5q0 70 27 151t78 132q71 71 170 71q92 0 139 -54.5t47 -148.5q0 -61 -23 -149zM232 580l110 149l169 -43l-160 -106h-119zM239 395q-21 -21 -38 -82h91q6 29 6 50q0 45 -31 45
q-15 0 -28 -13z" />
    <glyph glyph-name="ecircumflex" unicode="&#xea;" horiz-adv-x="469" 
d="M444 208h-260q0 -64 72 -64q56 0 110 33l45 -139q-81 -52 -186 -52t-162 58.5t-57 161.5q0 70 27 151t78 132q71 71 170 71q92 0 139 -54.5t47 -148.5q0 -61 -23 -149zM136 580l125 134h135l65 -134h-99l-50 45l-69 -45h-107zM239 395q-21 -21 -38 -82h91q6 29 6 50
q0 45 -31 45q-15 0 -28 -13z" />
    <glyph glyph-name="edieresis" unicode="&#xeb;" horiz-adv-x="469" 
d="M444 208h-260q0 -64 72 -64q56 0 110 33l45 -139q-81 -52 -186 -52t-162 58.5t-57 161.5q0 70 27 151t78 132q71 71 170 71q92 0 139 -54.5t47 -148.5q0 -61 -23 -149zM146 580l29 132h141l-29 -132h-141zM316 580l29 132h140l-29 -132h-140zM239 395q-21 -21 -38 -82h91
q6 29 6 50q0 45 -31 45q-15 0 -28 -13z" />
    <glyph glyph-name="igrave" unicode="&#xec;" horiz-adv-x="241" 
d="M-34 0l118 546h191l-118 -546h-191zM134 572l-113 106l178 43l44 -149h-109z" />
    <glyph glyph-name="iacute" unicode="&#xed;" horiz-adv-x="241" 
d="M118 572l110 149l169 -43l-160 -106h-119zM-34 0l118 546h191l-118 -546h-191z" />
    <glyph glyph-name="icircumflex" unicode="&#xee;" horiz-adv-x="241" 
d="M22 572l125 134h135l65 -134h-99l-50 45l-69 -45h-107zM-34 0l118 546h191l-118 -546h-191z" />
    <glyph glyph-name="idieresis" unicode="&#xef;" horiz-adv-x="241" 
d="M31 572l29 132h141l-29 -132h-141zM201 572l29 132h140l-29 -132h-140zM-34 0l118 546h191l-118 -546h-191z" />
    <glyph glyph-name="eth" unicode="&#xf0;" horiz-adv-x="494" 
d="M196 574l-19 71l61 15q-17 21 -54 60h209l13 -17l77 19l19 -72l-55 -14q49 -103 49 -233q0 -86 -28 -187.5t-86 -160.5q-71 -69 -168 -69q-100 0 -153 59.5t-53 156.5q0 70 27.5 159.5t75.5 138.5q52 52 117 52q52 0 89 -37q-12 40 -35 80zM253 159q22 22 37.5 80.5
t15.5 102.5q0 58 -35 58q-15 0 -28 -13q-22 -22 -37.5 -80.5t-15.5 -102.5q0 -58 35 -58q15 0 28 13z" />
    <glyph glyph-name="ntilde" unicode="&#xf1;" horiz-adv-x="491" 
d="M-36 0l118 546h190l-13 -62q60 74 132 74q55 0 83.5 -31.5t28.5 -83.5q0 -32 -8 -68l-81 -375h-191l71 328q5 25 5 33q0 28 -27 28q-33 0 -44 -47l-74 -342h-190zM430 728l82 -17q-35 -133 -113 -133q-28 0 -72 17q-45 15 -56 15q-15 0 -23.5 -8t-17.5 -28l-82 17
q35 133 113 133q27 0 73 -17q46 -16 55 -16q14 0 23 8t18 29z" />
    <glyph glyph-name="ograve" unicode="&#xf2;" horiz-adv-x="491" 
d="M281 560q99 0 151.5 -57.5t52.5 -156.5q0 -79 -26.5 -159t-75.5 -129q-72 -72 -172 -72q-99 0 -151.5 57.5t-52.5 156.5q0 79 26.5 159t75.5 129q72 72 172 72zM223 146q15 0 28 13q22 22 37.5 80.5t15.5 102.5q0 58 -35 58q-15 0 -28 -13q-22 -22 -37.5 -80.5
t-15.5 -102.5q0 -58 35 -58zM262 580l-113 106l178 43l44 -149h-109z" />
    <glyph glyph-name="oacute" unicode="&#xf3;" horiz-adv-x="491" 
d="M241 580l110 149l169 -43l-160 -106h-119zM281 560q99 0 151.5 -57.5t52.5 -156.5q0 -79 -26.5 -159t-75.5 -129q-72 -72 -172 -72q-99 0 -151.5 57.5t-52.5 156.5q0 79 26.5 159t75.5 129q72 72 172 72zM223 146q15 0 28 13q22 22 37.5 80.5t15.5 102.5q0 58 -35 58
q-15 0 -28 -13q-22 -22 -37.5 -80.5t-15.5 -102.5q0 -58 35 -58z" />
    <glyph glyph-name="ocircumflex" unicode="&#xf4;" horiz-adv-x="491" 
d="M148 580l125 134h135l65 -134h-99l-50 45l-69 -45h-107zM281 560q99 0 151.5 -57.5t52.5 -156.5q0 -79 -26.5 -159t-75.5 -129q-72 -72 -172 -72q-99 0 -151.5 57.5t-52.5 156.5q0 79 26.5 159t75.5 129q72 72 172 72zM223 146q15 0 28 13q22 22 37.5 80.5t15.5 102.5
q0 58 -35 58q-15 0 -28 -13q-22 -22 -37.5 -80.5t-15.5 -102.5q0 -58 35 -58z" />
    <glyph glyph-name="otilde" unicode="&#xf5;" horiz-adv-x="491" 
d="M281 560q99 0 151.5 -57.5t52.5 -156.5q0 -79 -26.5 -159t-75.5 -129q-72 -72 -172 -72q-99 0 -151.5 57.5t-52.5 156.5q0 79 26.5 159t75.5 129q72 72 172 72zM223 146q15 0 28 13q22 22 37.5 80.5t15.5 102.5q0 58 -35 58q-15 0 -28 -13q-22 -22 -37.5 -80.5
t-15.5 -102.5q0 -58 35 -58zM426 728l82 -17q-35 -133 -113 -133q-28 0 -72 17q-45 15 -56 15q-15 0 -23.5 -8t-17.5 -28l-82 17q35 133 113 133q27 0 73 -17q46 -16 55 -16q14 0 23 8t18 29z" />
    <glyph glyph-name="odieresis" unicode="&#xf6;" horiz-adv-x="491" 
d="M158 580l29 132h141l-29 -132h-141zM328 580l29 132h140l-29 -132h-140zM281 560q99 0 151.5 -57.5t52.5 -156.5q0 -79 -26.5 -159t-75.5 -129q-72 -72 -172 -72q-99 0 -151.5 57.5t-52.5 156.5q0 79 26.5 159t75.5 129q72 72 172 72zM223 146q15 0 28 13
q22 22 37.5 80.5t15.5 102.5q0 58 -35 58q-15 0 -28 -13q-22 -22 -37.5 -80.5t-15.5 -102.5q0 -58 35 -58z" />
    <glyph glyph-name="divide" unicode="&#xf7;" horiz-adv-x="499" 
d="M123 81l32 149h169l-33 -149h-168zM28 274l34 156h443l-34 -156h-443zM209 474l34 149h168l-34 -149h-168z" />
    <glyph glyph-name="oslash" unicode="&#xf8;" horiz-adv-x="491" 
d="M281 560q90 0 141 -48l31 36h90l-81 -90q23 -49 23 -112q0 -79 -26.5 -159t-75.5 -129q-72 -72 -172 -72q-91 0 -142 48l-31 -36h-90l81 90q-22 45 -22 112q0 79 26.5 159t75.5 129q72 72 172 72zM255 154q40 40 53 153l-120 -148q10 -20 34 -20q18 0 33 15zM270 407
q-18 0 -33 -15q-41 -41 -54 -154l120 149q-10 20 -33 20z" />
    <glyph glyph-name="ugrave" unicode="&#xf9;" horiz-adv-x="491" 
d="M102 -12q-55 0 -83.5 31.5t-28.5 83.5q0 32 8 68l81 375h191l-71 -328q-5 -25 -5 -33q0 -28 27 -28q33 0 44 47l74 342h190l-118 -546h-190l13 62q-60 -74 -132 -74zM259 572l-113 106l178 43l44 -149h-109z" />
    <glyph glyph-name="uacute" unicode="&#xfa;" horiz-adv-x="491" 
d="M242 572l110 149l169 -43l-160 -106h-119zM102 -12q-55 0 -83.5 31.5t-28.5 83.5q0 32 8 68l81 375h191l-71 -328q-5 -25 -5 -33q0 -28 27 -28q33 0 44 47l74 342h190l-118 -546h-190l13 62q-60 -74 -132 -74z" />
    <glyph glyph-name="ucircumflex" unicode="&#xfb;" horiz-adv-x="491" 
d="M147 572l125 134h135l65 -134h-99l-50 45l-69 -45h-107zM102 -12q-55 0 -83.5 31.5t-28.5 83.5q0 32 8 68l81 375h191l-71 -328q-5 -25 -5 -33q0 -28 27 -28q33 0 44 47l74 342h190l-118 -546h-190l13 62q-60 -74 -132 -74z" />
    <glyph glyph-name="udieresis" unicode="&#xfc;" horiz-adv-x="491" 
d="M157 572l29 132h141l-29 -132h-141zM327 572l29 132h140l-29 -132h-140zM102 -12q-55 0 -83.5 31.5t-28.5 83.5q0 32 8 68l81 375h191l-71 -328q-5 -25 -5 -33q0 -28 27 -28q33 0 44 47l74 342h190l-118 -546h-190l13 62q-60 -74 -132 -74z" />
    <glyph glyph-name="yacute" unicode="&#xfd;" horiz-adv-x="481" 
d="M91 12l-34 534h189l-5 -284l113 284h194l-257 -531q-42 -88 -85 -123.5t-115 -35.5q-67 0 -127 36l51 136q32 -23 55 -23q13 0 21 7zM237 572l110 149l169 -43l-160 -106h-119z" />
    <glyph glyph-name="thorn" unicode="&#xfe;" horiz-adv-x="510" 
d="M310 720l-50 -233q58 71 126 71q57 0 89 -42t32 -121q0 -86 -29.5 -196t-83.5 -164q-47 -47 -107 -47q-81 0 -119 75l-44 -202h-190l186 859h190zM233 151q15 0 28 13q23 23 38.5 79t15.5 95q0 57 -34 57q-15 0 -28 -13q-23 -23 -38.5 -79t-15.5 -95q0 -57 34 -57z" />
    <glyph glyph-name="ydieresis" unicode="&#xff;" horiz-adv-x="481" 
d="M91 12l-34 534h189l-5 -284l113 284h194l-257 -531q-42 -88 -85 -123.5t-115 -35.5q-67 0 -127 36l51 136q32 -23 55 -23q13 0 21 7zM151 572l29 132h141l-29 -132h-141zM321 572l29 132h140l-29 -132h-140z" />
    <glyph glyph-name="Amacron" unicode="&#x100;" horiz-adv-x="563" 
d="M-70 0l336 702h219l31 -702h-197v107h-143l-45 -107h-201zM241 259h80l2 197zM224 739l26 112h319l-25 -112h-320z" />
    <glyph glyph-name="amacron" unicode="&#x101;" horiz-adv-x="465" 
d="M93 -11q-51 0 -79.5 32.5t-28.5 92.5q0 49 16 98t45 78q44 46 124 46q47 0 96 -22l2 8q4 16 4 26q0 51 -66 51q-47 0 -113 -23l-17 153q96 27 183 27q98 0 152 -41.5t54 -121.5q0 -35 -9 -74l-69 -319h-189l9 43q-56 -54 -114 -54zM186 107q16 0 30 14.5t20 40.5l12 61
q-16 8 -34 8q-19 0 -31 -12q-24 -24 -24 -75q0 -37 27 -37zM146 583l25 110h303l-25 -110h-303z" />
    <glyph glyph-name="Abreve" unicode="&#x102;" horiz-adv-x="563" 
d="M-70 0l336 702h219l31 -702h-197v107h-143l-45 -107h-201zM241 259h80l2 197zM383 733q-67 0 -100.5 29.5t-26.5 89.5h99q3 -31 45 -31q37 0 56 31h103q-41 -119 -176 -119z" />
    <glyph glyph-name="abreve" unicode="&#x103;" horiz-adv-x="465" 
d="M93 -11q-51 0 -79.5 32.5t-28.5 92.5q0 49 16 98t45 78q44 46 124 46q47 0 96 -22l2 8q4 16 4 26q0 51 -66 51q-47 0 -113 -23l-17 153q96 27 183 27q98 0 152 -41.5t54 -121.5q0 -35 -9 -74l-69 -319h-189l9 43q-56 -54 -114 -54zM186 107q16 0 30 14.5t20 40.5l12 61
q-16 8 -34 8q-19 0 -31 -12q-24 -24 -24 -75q0 -37 27 -37zM304 579q-69 0 -105 33.5t-32 101.5h99q2 -44 47 -44q44 0 64 44h100q-19 -65 -64.5 -100t-108.5 -35z" />
    <glyph glyph-name="Aogonek" unicode="&#x104;" horiz-adv-x="563" 
d="M514 -57l-19 -89q-31 -4 -71 -4q-123 0 -123 60q0 44 60 90h-42v107h-143l-45 -107h-201l336 702h219l31 -702h-32q-22 -23 -22 -36q0 -16 52 -21zM241 259h80l2 197z" />
    <glyph glyph-name="aogonek" unicode="&#x105;" horiz-adv-x="465" 
d="M386 -57l-19 -89q-31 -4 -71 -4q-123 0 -123 60q0 44 60 90h-35l9 43q-56 -54 -114 -54q-51 0 -79.5 32.5t-28.5 92.5q0 49 16 98t45 78q44 46 124 46q47 0 96 -22l2 8q4 16 4 26q0 51 -66 51q-47 0 -113 -23l-17 153q96 27 183 27q98 0 152 -41.5t54 -121.5
q0 -35 -9 -74l-69 -319h-31q-22 -23 -22 -36q0 -16 52 -21zM186 107q16 0 30 14.5t20 40.5l12 61q-16 8 -34 8q-19 0 -31 -12q-24 -24 -24 -75q0 -37 27 -37z" />
    <glyph glyph-name="Cacute" unicode="&#x106;" horiz-adv-x="494" 
d="M270 -12q-114 0 -181.5 75t-67.5 206q0 101 33.5 197t98.5 161q85 85 201 85q63 0 117.5 -24t89.5 -65l-117 -147q-38 50 -87 50q-36 0 -62 -26q-36 -36 -54.5 -98.5t-18.5 -114.5q0 -112 80 -112q39 0 89 40l69 -158q-89 -69 -190 -69zM306 735l98 127l188 -38l-147 -89
h-139z" />
    <glyph glyph-name="cacute" unicode="&#x107;" horiz-adv-x="404" 
d="M221 580l110 149l169 -43l-160 -106h-119zM212 -14q-94 0 -151 61t-57 165q0 69 23.5 144t79.5 131q72 72 169 72q103 0 170 -83l-102 -128q-28 38 -60 38q-24 0 -44 -20q-22 -22 -34.5 -60t-12.5 -73q0 -40 17 -58t41 -18q31 0 64 28l59 -140q-70 -59 -162 -59z" />
    <glyph glyph-name="Cdotaccent" unicode="&#x10a;" horiz-adv-x="494" 
d="M304 735l28 124h151l-27 -124h-152zM270 -12q-114 0 -181.5 75t-67.5 206q0 101 33.5 197t98.5 161q85 85 201 85q63 0 117.5 -24t89.5 -65l-117 -147q-38 50 -87 50q-36 0 -62 -26q-36 -36 -54.5 -98.5t-18.5 -114.5q0 -112 80 -112q39 0 89 40l69 -158
q-89 -69 -190 -69z" />
    <glyph glyph-name="cdotaccent" unicode="&#x10b;" horiz-adv-x="404" 
d="M212 -14q-94 0 -151 61t-57 165q0 69 23.5 144t79.5 131q72 72 169 72q103 0 170 -83l-102 -128q-28 38 -60 38q-24 0 -44 -20q-22 -22 -34.5 -60t-12.5 -73q0 -40 17 -58t41 -18q31 0 64 28l59 -140q-70 -59 -162 -59zM216 580l29 132h149l-28 -132h-150z" />
    <glyph glyph-name="Ccaron" unicode="&#x10c;" horiz-adv-x="494" 
d="M270 -12q-114 0 -181.5 75t-67.5 206q0 101 33.5 197t98.5 161q85 85 201 85q63 0 117.5 -24t89.5 -65l-117 -147q-38 50 -87 50q-36 0 -62 -26q-36 -36 -54.5 -98.5t-18.5 -114.5q0 -112 80 -112q39 0 89 40l69 -158q-89 -69 -190 -69zM570 852l-113 -117h-151l-62 117
h107l44 -38l60 38h115z" />
    <glyph glyph-name="ccaron" unicode="&#x10d;" horiz-adv-x="404" 
d="M215 580l-66 134h100l49 -44l70 44h107l-126 -134h-134zM212 -14q-94 0 -151 61t-57 165q0 69 23.5 144t79.5 131q72 72 169 72q103 0 170 -83l-102 -128q-28 38 -60 38q-24 0 -44 -20q-22 -22 -34.5 -60t-12.5 -73q0 -40 17 -58t41 -18q31 0 64 28l59 -140
q-70 -59 -162 -59z" />
    <glyph glyph-name="Dcaron" unicode="&#x10e;" horiz-adv-x="558" 
d="M-34 0l152 700h151q160 0 236 -76q65 -65 65 -184q0 -83 -31 -183.5t-89 -158.5q-98 -98 -280 -98h-204zM346 502q-24 22 -66 22h-6l-74 -348h9q58 0 94 36q32 32 50.5 94.5t18.5 115.5q0 54 -26 80zM542 844l-113 -117h-151l-62 117h107l44 -38l60 38h115z" />
    <glyph glyph-name="dcaron" unicode="&#x10f;" horiz-adv-x="510" 
d="M573 570l44 171h114l-1 -1l-88 -170h-69zM236 0l13 59q-58 -71 -126 -71q-57 0 -89 42t-32 121q0 86 29.5 196t83.5 164q47 47 107 47q82 0 119 -75l51 237h190l-156 -720h-190zM228 151q15 0 28 13q23 23 38.5 79t15.5 95q0 57 -34 57q-15 0 -28 -13q-23 -23 -38.5 -79
t-15.5 -95q0 -57 34 -57z" />
    <glyph glyph-name="Dcroat" unicode="&#x110;" horiz-adv-x="593" 
d="M12 275l34 154h48l59 271h151q160 0 236 -76q65 -65 65 -184q0 -83 -31 -183.5t-89 -158.5q-98 -98 -280 -98h-204l59 275h-48zM383 504q-25 23 -70 23h-8l-22 -100h56l-33 -150h-55l-22 -104h12q61 0 98 37q32 31 51 95t19 118q0 55 -26 81z" />
    <glyph glyph-name="dcroat" unicode="&#x111;" horiz-adv-x="510" 
d="M273 579l23 105h88l8 36h190l-8 -36h34l-23 -108h-35l-124 -576h-190l13 59q-58 -71 -126 -71q-57 0 -89 42t-32 121q0 86 29.5 196t83.5 164q47 47 107 47q82 0 119 -75l20 96h-88zM228 151q15 0 28 13q23 23 38.5 79t15.5 95q0 57 -34 57q-15 0 -28 -13
q-23 -23 -38.5 -79t-15.5 -95q0 -57 34 -57z" />
    <glyph glyph-name="Emacron" unicode="&#x112;" horiz-adv-x="467" 
d="M176 731l26 112h319l-25 -112h-320zM-34 0l152 700h419l-39 -176h-224l-20 -89h205l-36 -166h-205l-20 -93h229l-39 -176h-422z" />
    <glyph glyph-name="emacron" unicode="&#x113;" horiz-adv-x="469" 
d="M444 208h-260q0 -64 72 -64q56 0 110 33l45 -139q-81 -52 -186 -52t-162 58.5t-57 161.5q0 70 27 151t78 132q71 71 170 71q92 0 139 -54.5t47 -148.5q0 -61 -23 -149zM150 583l25 110h303l-25 -110h-303zM239 395q-21 -21 -38 -82h91q6 29 6 50q0 45 -31 45
q-15 0 -28 -13z" />
    <glyph glyph-name="Ebreve" unicode="&#x114;" horiz-adv-x="467" 
d="M335 725q-67 0 -100.5 29.5t-26.5 89.5h99q3 -31 45 -31q37 0 56 31h103q-41 -119 -176 -119zM-34 0l152 700h419l-39 -176h-224l-20 -89h205l-36 -166h-205l-20 -93h229l-39 -176h-422z" />
    <glyph glyph-name="ebreve" unicode="&#x115;" horiz-adv-x="469" 
d="M444 208h-260q0 -64 72 -64q56 0 110 33l45 -139q-81 -52 -186 -52t-162 58.5t-57 161.5q0 70 27 151t78 132q71 71 170 71q92 0 139 -54.5t47 -148.5q0 -61 -23 -149zM308 579q-69 0 -105 33.5t-32 101.5h99q2 -44 47 -44q44 0 64 44h100q-19 -65 -64.5 -100t-108.5 -35
zM239 395q-21 -21 -38 -82h91q6 29 6 50q0 45 -31 45q-15 0 -28 -13z" />
    <glyph glyph-name="Edotaccent" unicode="&#x116;" horiz-adv-x="467" 
d="M259 727l28 124h151l-27 -124h-152zM-34 0l152 700h419l-39 -176h-224l-20 -89h205l-36 -166h-205l-20 -93h229l-39 -176h-422z" />
    <glyph glyph-name="edotaccent" unicode="&#x117;" horiz-adv-x="469" 
d="M444 208h-260q0 -64 72 -64q56 0 110 33l45 -139q-81 -52 -186 -52t-162 58.5t-57 161.5q0 70 27 151t78 132q71 71 170 71q92 0 139 -54.5t47 -148.5q0 -61 -23 -149zM227 580l29 132h149l-28 -132h-150zM239 395q-21 -21 -38 -82h91q6 29 6 50q0 45 -31 45
q-15 0 -28 -13z" />
    <glyph glyph-name="Eogonek" unicode="&#x118;" horiz-adv-x="467" 
d="M-34 0l152 700h419l-39 -176h-224l-20 -89h205l-36 -166h-205l-20 -93h229l-39 -176h-38q-22 -23 -22 -36q0 -16 52 -21l-19 -89q-31 -4 -71 -4q-123 0 -123 60q0 44 60 90h-261z" />
    <glyph glyph-name="eogonek" unicode="&#x119;" horiz-adv-x="469" 
d="M366 177l45 -139q-60 -31 -75 -46q-16 -16 -16 -27q0 -10 11 -14.5t42 -7.5l-20 -89q-29 -4 -70 -4q-123 0 -123 60q0 37 43 77q-95 6 -146 63.5t-51 155.5q0 70 27 151t78 132q71 71 170 71q92 0 139 -54.5t47 -148.5q0 -61 -23 -149h-260q0 -64 72 -64q56 0 110 33z
M239 395q-21 -21 -38 -82h91q6 29 6 50q0 45 -31 45q-15 0 -28 -13z" />
    <glyph glyph-name="Ecaron" unicode="&#x11a;" horiz-adv-x="467" 
d="M524 844l-113 -117h-151l-62 117h107l44 -38l60 38h115zM-34 0l152 700h419l-39 -176h-224l-20 -89h205l-36 -166h-205l-20 -93h229l-39 -176h-422z" />
    <glyph glyph-name="ecaron" unicode="&#x11b;" horiz-adv-x="469" 
d="M444 208h-260q0 -64 72 -64q56 0 110 33l45 -139q-81 -52 -186 -52t-162 58.5t-57 161.5q0 70 27 151t78 132q71 71 170 71q92 0 139 -54.5t47 -148.5q0 -61 -23 -149zM226 580l-66 134h100l49 -44l70 44h107l-126 -134h-134zM239 395q-21 -21 -38 -82h91q6 29 6 50
q0 45 -31 45q-15 0 -28 -13z" />
    <glyph glyph-name="Gbreve" unicode="&#x11e;" horiz-adv-x="545" 
d="M277 -13q-117 0 -187 69t-70 193q0 93 34.5 199.5t97.5 169.5q94 94 223 94q126 0 208 -86l-117 -147q-40 50 -97 50q-42 0 -71 -29q-41 -41 -61 -113.5t-20 -124.5q0 -105 73 -105q17 0 29 5l23 104h-67l32 154h247l-84 -385q-94 -48 -193 -48zM393 733
q-67 0 -100.5 29.5t-26.5 89.5h99q3 -31 45 -31q37 0 56 31h103q-41 -119 -176 -119z" />
    <glyph glyph-name="gbreve" unicode="&#x11f;" horiz-adv-x="508" 
d="M171 -143q-116 0 -207 35l45 149q81 -38 147 -38q48 0 72 23q21 21 31 68l6 23q-60 -71 -130 -71q-57 0 -90 39t-33 114q0 78 28 172.5t75 141.5q44 44 103 44q84 0 123 -74l13 63h191l-98 -456q-26 -115 -80 -169q-64 -64 -196 -64zM238 195q15 0 28 13q20 20 31.5 63.5
t11.5 73.5q0 54 -35 54q-15 0 -28 -13q-20 -20 -31.5 -63.5t-11.5 -74.5q0 -53 35 -53zM340 579q-69 0 -105 33.5t-32 101.5h99q2 -44 47 -44q44 0 64 44h100q-19 -65 -64.5 -100t-108.5 -35z" />
    <glyph glyph-name="Gdotaccent" unicode="&#x120;" horiz-adv-x="545" 
d="M277 -13q-117 0 -187 69t-70 193q0 93 34.5 199.5t97.5 169.5q94 94 223 94q126 0 208 -86l-117 -147q-40 50 -97 50q-42 0 -71 -29q-41 -41 -61 -113.5t-20 -124.5q0 -105 73 -105q17 0 29 5l23 104h-67l32 154h247l-84 -385q-94 -48 -193 -48zM318 735l28 124h151
l-27 -124h-152z" />
    <glyph glyph-name="gdotaccent" unicode="&#x121;" horiz-adv-x="508" 
d="M171 -143q-116 0 -207 35l45 149q81 -38 147 -38q48 0 72 23q21 21 31 68l6 23q-60 -71 -130 -71q-57 0 -90 39t-33 114q0 78 28 172.5t75 141.5q44 44 103 44q84 0 123 -74l13 63h191l-98 -456q-26 -115 -80 -169q-64 -64 -196 -64zM238 195q15 0 28 13q20 20 31.5 63.5
t11.5 73.5q0 54 -35 54q-15 0 -28 -13q-20 -20 -31.5 -63.5t-11.5 -74.5q0 -53 35 -53zM259 580l29 132h149l-28 -132h-150z" />
    <glyph glyph-name="Gcommaaccent" unicode="&#x122;" horiz-adv-x="545" 
d="M277 -13q-117 0 -187 69t-70 193q0 93 34.5 199.5t97.5 169.5q94 94 223 94q126 0 208 -86l-117 -147q-40 50 -97 50q-42 0 -71 -29q-41 -41 -61 -113.5t-20 -124.5q0 -105 73 -105q17 0 29 5l23 104h-67l32 154h247l-84 -385q-94 -48 -193 -48zM120 -256l3 51
q70 11 81 48h-66l27 119h145l-22 -99q-13 -59 -56 -86t-112 -33z" />
    <glyph glyph-name="gcommaaccent" unicode="&#x123;" horiz-adv-x="508" 
d="M450 798l-3 -51q-70 -11 -81 -48h66l-27 -119h-145l22 99q13 59 56 86t112 33zM171 -143q-116 0 -207 35l45 149q81 -38 147 -38q48 0 72 23q21 21 31 68l6 23q-60 -71 -130 -71q-57 0 -90 39t-33 114q0 78 28 172.5t75 141.5q44 44 103 44q84 0 123 -74l13 63h191
l-98 -456q-26 -115 -80 -169q-64 -64 -196 -64zM238 195q15 0 28 13q20 20 31.5 63.5t11.5 73.5q0 54 -35 54q-15 0 -28 -13q-20 -20 -31.5 -63.5t-11.5 -74.5q0 -53 35 -53z" />
    <glyph glyph-name="Hbar" unicode="&#x126;" horiz-adv-x="588" 
d="M54 510l26 125h39l14 65h195l-15 -68h118l15 68h195l-14 -65h37l-26 -125h-39l-110 -510h-196l57 262h-117l-57 -262h-195l110 510h-37zM271 438h117l17 76h-118z" />
    <glyph glyph-name="hbar" unicode="&#x127;" horiz-adv-x="491" 
d="M57 576l24 108h31l8 36h190l-8 -36h91l-23 -105h-91l-20 -95q60 74 132 74q55 0 83.5 -31.5t28.5 -83.5q0 -32 -8 -68l-81 -375h-191l71 328q5 25 5 33q0 28 -27 28q-33 0 -44 -47l-74 -342h-190l125 576h-32z" />
    <glyph glyph-name="Imacron" unicode="&#x12a;" horiz-adv-x="249" 
d="M-32 0l152 700h195l-152 -700h-195zM66 731l26 112h319l-25 -112h-320z" />
    <glyph glyph-name="imacron" unicode="&#x12b;" horiz-adv-x="241" 
d="M-34 0l118 546h191l-118 -546h-191zM36 575l25 110h303l-25 -110h-303z" />
    <glyph glyph-name="Ibreve" unicode="&#x12c;" horiz-adv-x="249" 
d="M-32 0l152 700h195l-152 -700h-195zM225 725q-67 0 -100.5 29.5t-26.5 89.5h99q3 -31 45 -31q37 0 56 31h103q-41 -119 -176 -119z" />
    <glyph glyph-name="ibreve" unicode="&#x12d;" horiz-adv-x="241" 
d="M-34 0l118 546h191l-118 -546h-191zM194 571q-69 0 -105 33.5t-32 101.5h99q2 -44 47 -44q44 0 64 44h100q-19 -65 -64.5 -100t-108.5 -35z" />
    <glyph glyph-name="Iogonek" unicode="&#x12e;" horiz-adv-x="249" 
d="M-32 0l152 700h195l-152 -700h-35q-22 -23 -22 -36q0 -16 52 -21l-19 -89q-31 -4 -71 -4q-123 0 -123 60q0 43 60 90h-37z" />
    <glyph glyph-name="iogonek" unicode="&#x12f;" horiz-adv-x="241" 
d="M-34 0l118 546h191l-118 -546h-32q-22 -23 -22 -36q0 -16 52 -21l-19 -89q-31 -4 -71 -4q-123 0 -123 60q0 43 60 90h-36zM90 579l31 141h194l-31 -141h-194z" />
    <glyph glyph-name="Idotaccent" unicode="&#x130;" horiz-adv-x="249" 
d="M-32 0l152 700h195l-152 -700h-195zM149 727l28 124h151l-27 -124h-152z" />
    <glyph glyph-name="dotlessi" unicode="&#x131;" horiz-adv-x="241" 
d="M-34 0l118 546h191l-118 -546h-191z" />
    <glyph glyph-name="Kcommaaccent" unicode="&#x136;" horiz-adv-x="533" 
d="M92 -248l3 51q70 11 81 48h-66l27 119h145l-22 -99q-13 -59 -56 -86t-112 -33zM-34 0l152 700h195l-51 -235l148 235h216l-214 -314l67 -386h-204l-30 227l-50 -68l-34 -159h-195z" />
    <glyph glyph-name="kcommaaccent" unicode="&#x137;" horiz-adv-x="475" 
d="M59 -248l3 51q70 11 81 48h-66l27 119h145l-22 -99q-13 -59 -56 -86t-112 -33zM-36 0l156 720h190l-71 -327l100 153h206l-166 -237l48 -309h-194l-15 176l-36 -45l-28 -131h-190z" />
    <glyph glyph-name="Lacute" unicode="&#x139;" horiz-adv-x="426" 
d="M162 727l98 127l188 -38l-147 -89h-139zM-34 0l152 700h195l-112 -521h194l-40 -179h-389z" />
    <glyph glyph-name="lacute" unicode="&#x13a;" horiz-adv-x="241" 
d="M153 742l98 127l188 -38l-147 -89h-139zM-34 0l156 720h190l-156 -720h-190z" />
    <glyph glyph-name="Lcommaaccent" unicode="&#x13b;" horiz-adv-x="426" 
d="M36 -248l3 51q70 11 81 48h-66l27 119h145l-22 -99q-13 -59 -56 -86t-112 -33zM-34 0l152 700h195l-112 -521h194l-40 -179h-389z" />
    <glyph glyph-name="lcommaaccent" unicode="&#x13c;" horiz-adv-x="241" 
d="M-62 -248l3 51q70 11 81 48h-66l27 119h145l-22 -99q-13 -59 -56 -86t-112 -33zM-34 0l156 720h190l-156 -720h-190z" />
    <glyph glyph-name="Lcaron" unicode="&#x13d;" horiz-adv-x="426" 
d="M301 529l44 171h114l-1 -1l-88 -170h-69zM-34 0l152 700h195l-112 -521h194l-40 -179h-389z" />
    <glyph glyph-name="lcaron" unicode="&#x13e;" horiz-adv-x="241" 
d="M305 570l44 171h114l-1 -1l-88 -170h-69zM-34 0l156 720h190l-156 -720h-190z" />
    <glyph glyph-name="Ldot" unicode="&#x13f;" horiz-adv-x="426" 
d="M278 315l37 168h138l-37 -168h-138zM-34 0l152 700h195l-112 -521h194l-40 -179h-389z" />
    <glyph glyph-name="ldot" unicode="&#x140;" horiz-adv-x="375" 
d="M245 276l37 169h130l-37 -169h-130zM-34 0l156 720h190l-156 -720h-190z" />
    <glyph glyph-name="Lslash" unicode="&#x141;" horiz-adv-x="459" 
d="M-6 188l41 188l50 19l66 305h195l-48 -224l112 43l-41 -187l-112 -43l-23 -110h194l-40 -179h-389l45 207z" />
    <glyph glyph-name="lslash" unicode="&#x142;" horiz-adv-x="315" 
d="M-4 209l39 179l56 21l67 311h190l-50 -231l59 23l-39 -180l-59 -23l-67 -309h-190l50 230z" />
    <glyph glyph-name="Nacute" unicode="&#x143;" horiz-adv-x="570" 
d="M310 727l98 127l188 -38l-147 -89h-139zM-34 0l152 700h188l77 -293l65 293h190l-152 -700h-180l-82 309l-68 -309h-190z" />
    <glyph glyph-name="nacute" unicode="&#x144;" horiz-adv-x="491" 
d="M248 580l110 149l169 -43l-160 -106h-119zM-36 0l118 546h190l-13 -62q60 74 132 74q55 0 83.5 -31.5t28.5 -83.5q0 -32 -8 -68l-81 -375h-191l71 328q5 25 5 33q0 28 -27 28q-33 0 -44 -47l-74 -342h-190z" />
    <glyph glyph-name="Ncommaaccent" unicode="&#x145;" horiz-adv-x="570" 
d="M102 -248l3 51q70 11 81 48h-66l27 119h145l-22 -99q-13 -59 -56 -86t-112 -33zM-34 0l152 700h188l77 -293l65 293h190l-152 -700h-180l-82 309l-68 -309h-190z" />
    <glyph glyph-name="ncommaaccent" unicode="&#x146;" horiz-adv-x="491" 
d="M68 -248l3 51q70 11 81 48h-66l27 119h145l-22 -99q-13 -59 -56 -86t-112 -33zM-36 0l118 546h190l-13 -62q60 74 132 74q55 0 83.5 -31.5t28.5 -83.5q0 -32 -8 -68l-81 -375h-191l71 328q5 25 5 33q0 28 -27 28q-33 0 -44 -47l-74 -342h-190z" />
    <glyph glyph-name="Ncaron" unicode="&#x147;" horiz-adv-x="570" 
d="M573 844l-113 -117h-151l-62 117h107l44 -38l60 38h115zM-34 0l152 700h188l77 -293l65 293h190l-152 -700h-180l-82 309l-68 -309h-190z" />
    <glyph glyph-name="ncaron" unicode="&#x148;" horiz-adv-x="491" 
d="M242 580l-66 134h100l49 -44l70 44h107l-126 -134h-134zM-36 0l118 546h190l-13 -62q60 74 132 74q55 0 83.5 -31.5t28.5 -83.5q0 -32 -8 -68l-81 -375h-191l71 328q5 25 5 33q0 28 -27 28q-33 0 -44 -47l-74 -342h-190z" />
    <glyph glyph-name="Omacron" unicode="&#x14c;" horiz-adv-x="576" 
d="M225 739l26 112h319l-25 -112h-320zM352 715q107 0 172 -67.5t65 -202.5q0 -95 -35 -202.5t-103 -175.5q-82 -82 -193 -82q-107 0 -172 67.5t-65 202.5q0 95 35 202.5t104 176.5q81 81 192 81zM270 161q23 0 44 21q35 35 58 118.5t23 147.5q0 91 -55 91q-23 0 -44 -21
q-35 -35 -58 -118.5t-23 -147.5q0 -91 55 -91z" />
    <glyph glyph-name="omacron" unicode="&#x14d;" horiz-adv-x="491" 
d="M162 583l25 110h303l-25 -110h-303zM281 560q99 0 151.5 -57.5t52.5 -156.5q0 -79 -26.5 -159t-75.5 -129q-72 -72 -172 -72q-99 0 -151.5 57.5t-52.5 156.5q0 79 26.5 159t75.5 129q72 72 172 72zM223 146q15 0 28 13q22 22 37.5 80.5t15.5 102.5q0 58 -35 58
q-15 0 -28 -13q-22 -22 -37.5 -80.5t-15.5 -102.5q0 -58 35 -58z" />
    <glyph glyph-name="Obreve" unicode="&#x14e;" horiz-adv-x="576" 
d="M384 733q-67 0 -100.5 29.5t-26.5 89.5h99q3 -31 45 -31q37 0 56 31h103q-41 -119 -176 -119zM352 715q107 0 172 -67.5t65 -202.5q0 -95 -35 -202.5t-103 -175.5q-82 -82 -193 -82q-107 0 -172 67.5t-65 202.5q0 95 35 202.5t104 176.5q81 81 192 81zM270 161
q23 0 44 21q35 35 58 118.5t23 147.5q0 91 -55 91q-23 0 -44 -21q-35 -35 -58 -118.5t-23 -147.5q0 -91 55 -91z" />
    <glyph glyph-name="obreve" unicode="&#x14f;" horiz-adv-x="491" 
d="M281 560q99 0 151.5 -57.5t52.5 -156.5q0 -79 -26.5 -159t-75.5 -129q-72 -72 -172 -72q-99 0 -151.5 57.5t-52.5 156.5q0 79 26.5 159t75.5 129q72 72 172 72zM223 146q15 0 28 13q22 22 37.5 80.5t15.5 102.5q0 58 -35 58q-15 0 -28 -13q-22 -22 -37.5 -80.5
t-15.5 -102.5q0 -58 35 -58zM320 579q-69 0 -105 33.5t-32 101.5h99q2 -44 47 -44q44 0 64 44h100q-19 -65 -64.5 -100t-108.5 -35z" />
    <glyph glyph-name="Ohungarumlaut" unicode="&#x150;" horiz-adv-x="576" 
d="M352 715q107 0 172 -67.5t65 -202.5q0 -95 -35 -202.5t-103 -175.5q-82 -82 -193 -82q-107 0 -172 67.5t-65 202.5q0 95 35 202.5t104 176.5q81 81 192 81zM270 161q23 0 44 21q35 35 58 118.5t23 147.5q0 91 -55 91q-23 0 -44 -21q-35 -35 -58 -118.5t-23 -147.5
q0 -91 55 -91zM391 735l48 63l-93 -63h-120l95 127l143 -30l23 30l162 -35l-138 -92h-120z" />
    <glyph glyph-name="ohungarumlaut" unicode="&#x151;" horiz-adv-x="491" 
d="M281 560q99 0 151.5 -57.5t52.5 -156.5q0 -79 -26.5 -159t-75.5 -129q-72 -72 -172 -72q-99 0 -151.5 57.5t-52.5 156.5q0 79 26.5 159t75.5 129q72 72 172 72zM307 580l52 74l-101 -74h-105l108 149l126 -35l24 35l147 -40l-146 -109h-105zM223 146q15 0 28 13
q22 22 37.5 80.5t15.5 102.5q0 58 -35 58q-15 0 -28 -13q-22 -22 -37.5 -80.5t-15.5 -102.5q0 -58 35 -58z" />
    <glyph glyph-name="OE" unicode="&#x152;" horiz-adv-x="773" 
d="M323 0q-160 0 -236 76q-65 65 -65 184q0 83 31 183.5t89 158.5q98 98 280 98h421l-38 -176h-219l-19 -89h199l-36 -166h-199l-20 -93h223l-39 -176h-372zM246 198q24 -22 66 -22h6l74 348h-9q-58 0 -94 -36q-32 -32 -50.5 -94.5t-18.5 -115.5q0 -54 26 -80z" />
    <glyph glyph-name="oe" unicode="&#x153;" horiz-adv-x="744" 
d="M719 208h-260q0 -64 72 -64q56 0 110 33l45 -139q-81 -52 -182 -52q-107 0 -155 60q-62 -60 -144 -60q-94 0 -146 58t-52 156q0 79 26.5 159t75.5 129q72 72 168 72q93 0 141 -64q62 64 146 64q86 0 132 -55t46 -148q0 -61 -23 -149zM223 146q15 0 28 13q22 22 37.5 80.5
t15.5 102.5q0 58 -35 58q-15 0 -28 -13q-22 -22 -37.5 -80.5t-15.5 -102.5q0 -58 35 -58zM514 395q-22 -21 -38 -82h91q6 29 6 50q0 45 -31 45q-15 0 -28 -13z" />
    <glyph glyph-name="Racute" unicode="&#x154;" horiz-adv-x="529" 
d="M265 0l-41 209q-3 0 -7.5 -0.5t-6.5 -0.5h-5l-45 -208h-194l152 700h173q155 0 220 -65q49 -49 49 -135q0 -121 -70 -191q-31 -31 -78 -52l60 -257h-207zM271 727l98 127l188 -38l-147 -89h-139zM238 358h23q42 0 67 25q15 15 23.5 41.5t8.5 47.5q0 32 -16 46
q-15 15 -46 15h-22z" />
    <glyph glyph-name="racute" unicode="&#x155;" horiz-adv-x="331" 
d="M162 572l110 149l169 -43l-160 -106h-119zM-36 0l118 546h190l-20 -92q57 104 134 99l-48 -218h-9q-54 0 -85.5 -31.5t-45.5 -98.5l-44 -205h-190z" />
    <glyph glyph-name="Rcommaaccent" unicode="&#x156;" horiz-adv-x="529" 
d="M265 0l-41 209q-3 0 -7.5 -0.5t-6.5 -0.5h-5l-45 -208h-194l152 700h173q155 0 220 -65q49 -49 49 -135q0 -121 -70 -191q-31 -31 -78 -52l60 -257h-207zM79 -248l3 51q70 11 81 48h-66l27 119h145l-22 -99q-13 -59 -56 -86t-112 -33zM238 358h23q42 0 67 25
q15 15 23.5 41.5t8.5 47.5q0 32 -16 46q-15 15 -46 15h-22z" />
    <glyph glyph-name="rcommaaccent" unicode="&#x157;" horiz-adv-x="331" 
d="M-57 -248l3 51q70 11 81 48h-66l27 119h145l-22 -99q-13 -59 -56 -86t-112 -33zM-36 0l118 546h190l-20 -92q57 104 134 99l-48 -218h-9q-54 0 -85.5 -31.5t-45.5 -98.5l-44 -205h-190z" />
    <glyph glyph-name="Rcaron" unicode="&#x158;" horiz-adv-x="529" 
d="M265 0l-41 209q-3 0 -7.5 -0.5t-6.5 -0.5h-5l-45 -208h-194l152 700h173q155 0 220 -65q49 -49 49 -135q0 -121 -70 -191q-31 -31 -78 -52l60 -257h-207zM536 844l-113 -117h-151l-62 117h107l44 -38l60 38h115zM238 358h23q42 0 67 25q15 15 23.5 41.5t8.5 47.5
q0 32 -16 46q-15 15 -46 15h-22z" />
    <glyph glyph-name="rcaron" unicode="&#x159;" horiz-adv-x="331" 
d="M155 572l-66 134h100l49 -44l70 44h107l-126 -134h-134zM-36 0l118 546h190l-20 -92q57 104 134 99l-48 -218h-9q-54 0 -85.5 -31.5t-45.5 -98.5l-44 -205h-190z" />
    <glyph glyph-name="Sacute" unicode="&#x15a;" horiz-adv-x="474" 
d="M198 -12q-129 0 -237 91l87 159q82 -75 154 -75q23 0 36.5 10.5t13.5 28.5q0 16 -12.5 28.5t-50.5 38.5q-66 45 -97.5 90.5t-31.5 108.5q0 108 69 175q69 69 184 69q119 0 215 -82l-96 -150q-63 57 -124 57q-23 0 -36.5 -10.5t-13.5 -27.5q0 -16 14 -30t61 -48
q60 -42 89 -85t29 -109q0 -102 -69 -171q-68 -68 -184 -68zM257 735l98 127l188 -38l-147 -89h-139z" />
    <glyph glyph-name="sacute" unicode="&#x15b;" horiz-adv-x="390" 
d="M196 580l110 149l169 -43l-160 -106h-119zM161 -12q-119 0 -209 80l79 140q72 -70 126 -70q29 0 29 22q0 3 -0.5 5t-1.5 4t-2.5 4t-4.5 4.5t-5.5 4.5t-7 5t-8 5.5t-10.5 7t-12 8.5q-54 37 -79 72t-25 84q0 83 54.5 138.5t147.5 55.5q105 0 193 -66l-80 -141
q-23 23 -54.5 40t-55.5 17q-27 0 -27 -20q0 -2 0.5 -4t1.5 -4t2 -3.5t3.5 -4t5 -4t7 -5t8 -5.5t10.5 -6.5t12 -8.5q54 -37 80.5 -72t26.5 -86q0 -81 -53.5 -139t-150.5 -58z" />
    <glyph glyph-name="Scedilla" unicode="&#x15e;" horiz-adv-x="474" 
d="M159 -145l-159 46l99 101q-74 22 -138 77l87 159q82 -75 154 -75q23 0 36.5 10.5t13.5 28.5q0 16 -12.5 28.5t-50.5 38.5q-66 45 -97.5 90.5t-31.5 108.5q0 108 69 175q69 69 184 69q119 0 215 -82l-96 -150q-63 57 -124 57q-23 0 -36.5 -10.5t-13.5 -27.5q0 -16 14 -30
t61 -48q60 -42 89 -85t29 -109q0 -102 -69 -171q-60 -60 -158 -67z" />
    <glyph glyph-name="scedilla" unicode="&#x15f;" horiz-adv-x="396" 
d="M128 -145l-159 46l100 102q-60 20 -111 65l79 140q72 -70 126 -70q29 0 29 22q0 3 -0.5 5t-1.5 4t-2.5 4t-4.5 4.5t-5.5 4.5t-7 5t-8 5.5t-10.5 7t-12 8.5q-54 37 -79 72t-25 84q0 83 54.5 138.5t147.5 55.5q105 0 193 -66l-80 -141q-23 23 -54.5 40t-55.5 17
q-27 0 -27 -20q0 -2 0.5 -4t1.5 -4t2 -3.5t3.5 -4t5 -4t7 -5t8 -5.5t10.5 -6.5t12 -8.5q54 -37 80.5 -72t26.5 -86q0 -76 -47 -132t-131 -64z" />
    <glyph glyph-name="Scaron" unicode="&#x160;" horiz-adv-x="474" 
d="M198 -12q-129 0 -237 91l87 159q82 -75 154 -75q23 0 36.5 10.5t13.5 28.5q0 16 -12.5 28.5t-50.5 38.5q-66 45 -97.5 90.5t-31.5 108.5q0 108 69 175q69 69 184 69q119 0 215 -82l-96 -150q-63 57 -124 57q-23 0 -36.5 -10.5t-13.5 -27.5q0 -16 14 -30t61 -48
q60 -42 89 -85t29 -109q0 -102 -69 -171q-68 -68 -184 -68zM521 852l-113 -117h-151l-62 117h107l44 -38l60 38h115z" />
    <glyph glyph-name="scaron" unicode="&#x161;" horiz-adv-x="396" 
d="M195 580l-66 134h100l49 -44l70 44h107l-126 -134h-134zM167 -12q-119 0 -209 80l79 140q72 -70 126 -70q29 0 29 22q0 3 -0.5 5t-1.5 4t-2.5 4t-4.5 4.5t-5.5 4.5t-7 5t-8 5.5t-10.5 7t-12 8.5q-54 37 -79 72t-25 84q0 83 54.5 138.5t147.5 55.5q105 0 193 -66l-80 -141
q-23 23 -54.5 40t-55.5 17q-27 0 -27 -20q0 -2 0.5 -4t1.5 -4t2 -3.5t3.5 -4t5 -4t7 -5t8 -5.5t10.5 -6.5t12 -8.5q54 -37 80.5 -72t26.5 -86q0 -81 -53.5 -139t-150.5 -58z" />
    <glyph glyph-name="Tcommaaccent" unicode="&#x162;" horiz-adv-x="475" 
d="M57 -248l3 51q70 11 81 48h-66l27 119h145l-22 -99q-13 -59 -56 -86t-112 -33zM81 0l113 521h-131l40 179h457l-40 -179h-131l-113 -521h-195z" />
    <glyph glyph-name="tcommaaccent" unicode="&#x163;" horiz-adv-x="327" 
d="M0 -256l3 51q70 11 81 48h-66l27 119h145l-22 -99q-13 -59 -56 -86t-112 -33zM159 -11q-68 0 -106.5 28t-38.5 84q0 23 8 60l51 235h-40l33 150h40l28 130h189l-28 -130h81l-33 -150h-81l-42 -194q-4 -18 -4 -31q0 -23 30 -23q20 0 44 8l-33 -152q-52 -15 -98 -15z" />
    <glyph glyph-name="Tcaron" unicode="&#x164;" horiz-adv-x="475" 
d="M528 844l-113 -117h-151l-62 117h107l44 -38l60 38h115zM81 0l113 521h-131l40 179h457l-40 -179h-131l-113 -521h-195z" />
    <glyph glyph-name="tcaron" unicode="&#x165;" horiz-adv-x="327" 
d="M324 571l44 171h114l-1 -1l-88 -170h-69zM159 -11q-68 0 -106.5 28t-38.5 84q0 23 8 60l51 235h-40l33 150h40l28 130h189l-28 -130h81l-33 -150h-81l-42 -194q-4 -18 -4 -31q0 -23 30 -23q20 0 44 8l-33 -152q-52 -15 -98 -15z" />
    <glyph glyph-name="Umacron" unicode="&#x16a;" horiz-adv-x="550" 
d="M216 731l26 112h319l-25 -112h-320zM235 -12q-107 0 -166 50.5t-59 136.5q0 51 11 98l93 427h195l-97 -447q-6 -30 -6 -42q0 -22 13.5 -34.5t37.5 -12.5q26 0 42 16q17 17 27 59l100 461h195l-101 -467q-26 -116 -84 -174q-71 -71 -201 -71z" />
    <glyph glyph-name="umacron" unicode="&#x16b;" horiz-adv-x="491" 
d="M102 -12q-55 0 -83.5 31.5t-28.5 83.5q0 32 8 68l81 375h191l-71 -328q-5 -25 -5 -33q0 -28 27 -28q33 0 44 47l74 342h190l-118 -546h-190l13 62q-60 -74 -132 -74zM161 575l25 110h303l-25 -110h-303z" />
    <glyph glyph-name="Ubreve" unicode="&#x16c;" horiz-adv-x="550" 
d="M374 720q-67 0 -100.5 29.5t-26.5 89.5h99q3 -31 45 -31q37 0 56 31h103q-41 -119 -176 -119zM235 -12q-107 0 -166 50.5t-59 136.5q0 51 11 98l93 427h195l-97 -447q-6 -30 -6 -42q0 -22 13.5 -34.5t37.5 -12.5q26 0 42 16q17 17 27 59l100 461h195l-101 -467
q-26 -116 -84 -174q-71 -71 -201 -71z" />
    <glyph glyph-name="ubreve" unicode="&#x16d;" horiz-adv-x="491" 
d="M102 -12q-55 0 -83.5 31.5t-28.5 83.5q0 32 8 68l81 375h191l-71 -328q-5 -25 -5 -33q0 -28 27 -28q33 0 44 47l74 342h190l-118 -546h-190l13 62q-60 -74 -132 -74zM319 569q-69 0 -105 33.5t-32 101.5h99q2 -44 47 -44q44 0 64 44h100q-19 -65 -64.5 -100t-108.5 -35z
" />
    <glyph glyph-name="Uring" unicode="&#x16e;" horiz-adv-x="550" 
d="M235 -12q-107 0 -166 50.5t-59 136.5q0 51 11 98l93 427h195l-97 -447q-6 -30 -6 -42q0 -22 13.5 -34.5t37.5 -12.5q26 0 42 16q17 17 27 59l100 461h195l-101 -467q-26 -116 -84 -174q-71 -71 -201 -71zM407 940q47 0 79.5 -27.5t32.5 -70.5q0 -52 -39 -88.5t-97 -36.5
q-47 0 -79.5 28t-32.5 70q0 52 39 88.5t97 36.5zM389 773q29 0 47.5 18.5t18.5 43.5q0 22 -14.5 35.5t-39.5 13.5q-29 0 -47.5 -18.5t-18.5 -43.5q0 -22 14.5 -35.5t39.5 -13.5z" />
    <glyph glyph-name="uring" unicode="&#x16f;" horiz-adv-x="491" 
d="M447 692q0 -50 -35.5 -87.5t-91.5 -37.5q-44 0 -72.5 26t-28.5 70q0 49 35.5 86.5t91.5 37.5q43 0 72 -26t29 -69zM282 666q0 -19 11.5 -31.5t31.5 -12.5q25 0 42 18.5t17 47.5q0 19 -11.5 32t-31.5 13q-25 0 -42 -19t-17 -48zM102 -12q-55 0 -83.5 31.5t-28.5 83.5
q0 32 8 68l81 375h191l-71 -328q-5 -25 -5 -33q0 -28 27 -28q33 0 44 47l74 342h190l-118 -546h-190l13 62q-60 -74 -132 -74z" />
    <glyph glyph-name="Uhungarumlaut" unicode="&#x170;" horiz-adv-x="550" 
d="M235 -12q-107 0 -166 50.5t-59 136.5q0 51 11 98l93 427h195l-97 -447q-6 -30 -6 -42q0 -22 13.5 -34.5t37.5 -12.5q26 0 42 16q17 17 27 59l100 461h195l-101 -467q-26 -116 -84 -174q-71 -71 -201 -71zM383 727l48 63l-93 -63h-120l95 127l143 -30l23 30l162 -35
l-138 -92h-120z" />
    <glyph glyph-name="uhungarumlaut" unicode="&#x171;" horiz-adv-x="491" 
d="M102 -12q-55 0 -83.5 31.5t-28.5 83.5q0 32 8 68l81 375h191l-71 -328q-5 -25 -5 -33q0 -28 27 -28q33 0 44 47l74 342h190l-118 -546h-190l13 62q-60 -74 -132 -74zM304 572l52 74l-101 -74h-105l108 149l126 -35l24 35l147 -40l-146 -109h-105z" />
    <glyph glyph-name="Uogonek" unicode="&#x172;" horiz-adv-x="550" 
d="M308 -57l-19 -89q-31 -4 -71 -4q-123 0 -123 60q0 42 57 88q-69 17 -105.5 63.5t-36.5 113.5q0 51 11 98l93 427h195l-97 -447q-6 -30 -6 -42q0 -22 13.5 -34.5t37.5 -12.5q26 0 42 16q17 17 27 59l100 461h195l-101 -467q-26 -116 -84 -174q-61 -61 -168 -70
q-12 -14 -12 -25q0 -16 52 -21z" />
    <glyph glyph-name="uogonek" unicode="&#x173;" horiz-adv-x="491" 
d="M102 -12q-55 0 -83.5 31.5t-28.5 83.5q0 32 8 68l81 375h191l-71 -328q-5 -25 -5 -33q0 -28 27 -28q33 0 44 47l74 342h190l-118 -546h-31q-22 -23 -22 -36q0 -16 52 -21l-19 -89q-31 -4 -71 -4q-123 0 -123 60q0 44 60 90h-36l13 62q-60 -74 -132 -74z" />
    <glyph glyph-name="Wcircumflex" unicode="&#x174;" horiz-adv-x="801" 
d="M82 -2l4 702h202l-22 -364l144 365h163l-12 -365l133 364h205l-300 -702h-190l-1 307l-135 -307h-191zM332 727l113 117h151l62 -117h-107l-44 38l-61 -38h-114z" />
    <glyph glyph-name="wcircumflex" unicode="&#x175;" horiz-adv-x="662" 
d="M233 572l125 134h135l65 -134h-99l-50 45l-69 -45h-107zM60 -3l-2 549h183l-16 -244l91 245h147l-13 -246l89 245h186l-240 -549h-162l-3 224l-95 -224h-165z" />
    <glyph glyph-name="Ycircumflex" unicode="&#x176;" horiz-adv-x="519" 
d="M99 0l55 252l-76 448h198l20 -232l119 232h210l-278 -457l-53 -243h-195zM187 727l113 117h151l62 -117h-107l-44 38l-61 -38h-114z" />
    <glyph glyph-name="ycircumflex" unicode="&#x177;" horiz-adv-x="481" 
d="M91 12l-34 534h189l-5 -284l113 284h194l-257 -531q-42 -88 -85 -123.5t-115 -35.5q-67 0 -127 36l51 136q32 -23 55 -23q13 0 21 7zM141 572l125 134h135l65 -134h-99l-50 45l-69 -45h-107z" />
    <glyph glyph-name="Ydieresis" unicode="&#x178;" horiz-adv-x="519" 
d="M99 0l55 252l-76 448h198l20 -232l119 232h210l-278 -457l-53 -243h-195zM195 727l27 124h143l-27 -124h-143zM368 727l27 124h144l-28 -124h-143z" />
    <glyph glyph-name="Zacute" unicode="&#x179;" horiz-adv-x="469" 
d="M-45 0l35 156l278 368h-193l39 176h434l-34 -156l-278 -368h198l-38 -176h-441zM255 727l98 127l188 -38l-147 -89h-139z" />
    <glyph glyph-name="zacute" unicode="&#x17a;" horiz-adv-x="413" 
d="M201 572l110 149l169 -43l-160 -106h-119zM-45 0l29 134l217 257h-157l33 155h384l-29 -134l-217 -257h162l-34 -155h-388z" />
    <glyph glyph-name="Zdotaccent" unicode="&#x17b;" horiz-adv-x="469" 
d="M252 727l28 124h151l-27 -124h-152zM-45 0l35 156l278 368h-193l39 176h434l-34 -156l-278 -368h198l-38 -176h-441z" />
    <glyph glyph-name="zdotaccent" unicode="&#x17c;" horiz-adv-x="413" 
d="M-45 0l29 134l217 257h-157l33 155h384l-29 -134l-217 -257h162l-34 -155h-388zM195 572l29 132h149l-28 -132h-150z" />
    <glyph glyph-name="Zcaron" unicode="&#x17d;" horiz-adv-x="469" 
d="M518 844l-113 -117h-151l-62 117h107l44 -38l60 38h115zM-45 0l35 156l278 368h-193l39 176h434l-34 -156l-278 -368h198l-38 -176h-441z" />
    <glyph glyph-name="zcaron" unicode="&#x17e;" horiz-adv-x="413" 
d="M195 572l-66 134h100l49 -44l70 44h107l-126 -134h-134zM-45 0l29 134l217 257h-157l33 155h384l-29 -134l-217 -257h162l-34 -155h-388z" />
    <glyph glyph-name="Aringacute" unicode="&#x1fa;" horiz-adv-x="563" 
d="M-70 0l330 693l6 -2q-9 19 -9 42q0 50 39 86t97 36q47 0 79.5 -27.5t32.5 -69.5q0 -35 -21 -66l2 1l30 -693h-197v107h-143l-45 -107h-201zM343 871l92 117l189 -36l-149 -81h-132zM375 688q29 0 47.5 19t18.5 44q0 22 -14.5 35.5t-39.5 13.5q-29 0 -47.5 -19t-18.5 -44
q0 -22 14.5 -35.5t39.5 -13.5zM241 259h80l2 197z" />
    <glyph glyph-name="aringacute" unicode="&#x1fb;" horiz-adv-x="465" 
d="M279 822l109 125l171 -36l-157 -89h-123zM93 -11q-51 0 -79.5 32.5t-28.5 92.5q0 49 16 98t45 78q44 46 124 46q47 0 96 -22l2 8q4 16 4 26q0 51 -66 51q-47 0 -113 -23l-17 153q96 27 183 27q98 0 152 -41.5t54 -121.5q0 -35 -9 -74l-69 -319h-189l9 43
q-56 -54 -114 -54zM186 107q16 0 30 14.5t20 40.5l12 61q-16 8 -34 8q-19 0 -31 -12q-24 -24 -24 -75q0 -37 27 -37zM435 704q0 -50 -35.5 -87.5t-91.5 -37.5q-44 0 -72.5 26t-28.5 70q0 49 35.5 86.5t91.5 37.5q43 0 72 -26t29 -69zM270 678q0 -19 11.5 -31.5t31.5 -12.5
q25 0 42 18.5t17 47.5q0 19 -11.5 32t-31.5 13q-25 0 -42 -19t-17 -48z" />
    <glyph glyph-name="AEacute" unicode="&#x1fc;" horiz-adv-x="769" 
d="M437 727l98 127l188 -38l-147 -89h-139zM-74 0l364 700h549l-39 -176h-219l-19 -89h199l-36 -166h-199l-20 -93h223l-39 -176h-415l23 107h-123l-50 -107h-199zM247 259h84l59 271h-11z" />
    <glyph glyph-name="aeacute" unicode="&#x1fd;" horiz-adv-x="706" 
d="M462 -14q-125 0 -181 81q-72 -78 -167 -78q-59 0 -94 32.5t-35 90.5q0 50 16 99.5t45 78.5q44 46 124 46q47 0 96 -22l2 8q4 16 4 26q0 51 -66 51q-47 0 -113 -23l-17 153q96 27 183 27q95 0 142 -45q60 49 129 49q83 0 128.5 -55t45.5 -148q0 -61 -23 -149h-260
q0 -64 72 -64q56 0 110 33l45 -139q-81 -52 -186 -52zM339 572l110 149l169 -43l-160 -106h-119zM191 112q31 0 60 37q-6 36 -2 77q-16 8 -34 8q-19 0 -31 -12q-25 -25 -25 -72q0 -38 32 -38zM476 395q-22 -21 -38 -82h91q6 29 6 50q0 45 -31 45q-15 0 -28 -13z" />
    <glyph glyph-name="Oslashacute" unicode="&#x1fe;" horiz-adv-x="576" 
d="M349 715q101 0 165 -58l40 48h96l-92 -107q31 -59 31 -141q0 -106 -33 -214.5t-101 -176.5q-81 -81 -195 -81q-103 0 -165 59l-39 -49h-97l91 110q-29 58 -29 138q0 106 33 214.5t101 176.5q81 81 194 81zM308 735l98 127l188 -38l-147 -89h-139zM269 155q28 0 51 23
q30 30 54 109.5t30 143.5l-187 -249q16 -27 52 -27zM290 522q-29 -29 -52.5 -104.5t-31.5 -140.5l185 244q-17 24 -50 24q-28 0 -51 -23z" />
    <glyph glyph-name="oslashacute" unicode="&#x1ff;" horiz-adv-x="491" 
d="M281 560q90 0 141 -48l31 36h90l-81 -90q23 -49 23 -112q0 -79 -26.5 -159t-75.5 -129q-72 -72 -172 -72q-91 0 -142 48l-31 -36h-90l81 90q-22 45 -22 112q0 79 26.5 159t75.5 129q72 72 172 72zM241 580l110 149l169 -43l-160 -106h-119zM255 154q40 40 53 153
l-120 -148q10 -20 34 -20q18 0 33 15zM270 407q-18 0 -33 -15q-41 -41 -54 -154l120 149q-10 20 -33 20z" />
    <glyph glyph-name="Scommaaccent" unicode="&#x218;" horiz-adv-x="474" 
d="M52 -256l3 51q70 11 81 48h-66l27 119h145l-22 -99q-13 -59 -56 -86t-112 -33zM198 -12q-129 0 -237 91l87 159q82 -75 154 -75q23 0 36.5 10.5t13.5 28.5q0 16 -12.5 28.5t-50.5 38.5q-66 45 -97.5 90.5t-31.5 108.5q0 108 69 175q69 69 184 69q119 0 215 -82l-96 -150
q-63 57 -124 57q-23 0 -36.5 -10.5t-13.5 -27.5q0 -16 14 -30t61 -48q60 -42 89 -85t29 -109q0 -102 -69 -171q-68 -68 -184 -68z" />
    <glyph glyph-name="scommaaccent" unicode="&#x219;" horiz-adv-x="396" 
d="M18 -250l3 51q70 11 81 48h-66l27 119h145l-22 -99q-13 -59 -56 -86t-112 -33zM167 -12q-119 0 -209 80l79 140q72 -70 126 -70q29 0 29 22q0 3 -0.5 5t-1.5 4t-2.5 4t-4.5 4.5t-5.5 4.5t-7 5t-8 5.5t-10.5 7t-12 8.5q-54 37 -79 72t-25 84q0 83 54.5 138.5t147.5 55.5
q105 0 193 -66l-80 -141q-23 23 -54.5 40t-55.5 17q-27 0 -27 -20q0 -2 0.5 -4t1.5 -4t2 -3.5t3.5 -4t5 -4t7 -5t8 -5.5t10.5 -6.5t12 -8.5q54 -37 80.5 -72t26.5 -86q0 -81 -53.5 -139t-150.5 -58z" />
    <glyph glyph-name="schwa" unicode="&#x259;" horiz-adv-x="469" 
d="M2 189q0 61 23 149h260q0 64 -72 64q-56 0 -110 -33l-45 139q81 52 186 52t162 -58.5t57 -161.5q0 -70 -27 -151t-78 -132q-71 -71 -170 -71q-92 0 -139 54.5t-47 148.5zM230 151q21 21 37 82h-90q-6 -29 -6 -50q0 -45 31 -45q15 0 28 13z" />
    <glyph glyph-name="circumflex" unicode="&#x2c6;" 
d="M152 572l125 134h135l65 -134h-99l-50 45l-69 -45h-107z" />
    <glyph glyph-name="caron" unicode="&#x2c7;" 
d="M248 572l-66 134h100l49 -44l70 44h107l-126 -134h-134z" />
    <glyph glyph-name="breve" unicode="&#x2d8;" 
d="M327 571q-69 0 -105 33.5t-32 101.5h99q2 -44 47 -44q44 0 64 44h100q-19 -65 -64.5 -100t-108.5 -35z" />
    <glyph glyph-name="dotaccent" unicode="&#x2d9;" 
d="M240 572l29 132h149l-28 -132h-150z" />
    <glyph glyph-name="ring" unicode="&#x2da;" 
d="M452 696q0 -50 -35.5 -87.5t-91.5 -37.5q-44 0 -72.5 26t-28.5 70q0 49 35.5 86.5t91.5 37.5q43 0 72 -26t29 -69zM287 670q0 -19 11.5 -31.5t31.5 -12.5q25 0 42 18.5t17 47.5q0 19 -11.5 32t-31.5 13q-25 0 -42 -19t-17 -48z" />
    <glyph glyph-name="ogonek" unicode="&#x2db;" 
d="M289 -57l-19 -89q-31 -4 -71 -4q-123 0 -123 60q0 52 98 117l103 -9q-40 -39 -40 -54q0 -16 52 -21z" />
    <glyph glyph-name="tilde" unicode="&#x2dc;" 
d="M431 720l82 -17q-35 -133 -113 -133q-28 0 -72 17q-45 15 -56 15q-15 0 -23.5 -8t-17.5 -28l-82 17q35 133 113 133q27 0 73 -17q46 -16 55 -16q14 0 23 8t18 29z" />
    <glyph glyph-name="hungarumlaut" unicode="&#x2dd;" 
d="M285 572l52 74l-101 -74h-105l108 149l126 -35l24 35l147 -40l-146 -109h-105z" />
    <glyph glyph-name="commaaccent" unicode="&#x326;" 
d="M69 -248l3 51q70 11 81 48h-66l27 119h145l-22 -99q-13 -59 -56 -86t-112 -33z" />
    <glyph glyph-name="Wgrave" unicode="&#x1e80;" horiz-adv-x="801" 
d="M428 727l-107 89l194 38l41 -127h-128zM82 -2l4 702h202l-22 -364l144 365h163l-12 -365l133 364h205l-300 -702h-190l-1 307l-135 -307h-191z" />
    <glyph glyph-name="wgrave" unicode="&#x1e81;" horiz-adv-x="662" 
d="M60 -3l-2 549h183l-16 -244l91 245h147l-13 -246l89 245h186l-240 -549h-162l-3 224l-95 -224h-165zM345 572l-113 106l178 43l44 -149h-109z" />
    <glyph glyph-name="Wacute" unicode="&#x1e82;" horiz-adv-x="801" 
d="M425 727l98 127l188 -38l-147 -89h-139zM82 -2l4 702h202l-22 -364l144 365h163l-12 -365l133 364h205l-300 -702h-190l-1 307l-135 -307h-191z" />
    <glyph glyph-name="wacute" unicode="&#x1e83;" horiz-adv-x="662" 
d="M328 572l110 149l169 -43l-160 -106h-119zM60 -3l-2 549h183l-16 -244l91 245h147l-13 -246l89 245h186l-240 -549h-162l-3 224l-95 -224h-165z" />
    <glyph glyph-name="Wdieresis" unicode="&#x1e84;" horiz-adv-x="801" 
d="M341 727l27 124h143l-27 -124h-143zM514 727l27 124h144l-28 -124h-143zM82 -2l4 702h202l-22 -364l144 365h163l-12 -365l133 364h205l-300 -702h-190l-1 307l-135 -307h-191z" />
    <glyph glyph-name="wdieresis" unicode="&#x1e85;" horiz-adv-x="662" 
d="M242 572l29 132h141l-29 -132h-141zM412 572l29 132h140l-29 -132h-140zM60 -3l-2 549h183l-16 -244l91 245h147l-13 -246l89 245h186l-240 -549h-162l-3 224l-95 -224h-165z" />
    <glyph glyph-name="Ygrave" unicode="&#x1ef2;" horiz-adv-x="519" 
d="M99 0l55 252l-76 448h198l20 -232l119 232h210l-278 -457l-53 -243h-195zM284 727l-107 89l194 38l41 -127h-128z" />
    <glyph glyph-name="ygrave" unicode="&#x1ef3;" horiz-adv-x="481" 
d="M91 12l-34 534h189l-5 -284l113 284h194l-257 -531q-42 -88 -85 -123.5t-115 -35.5q-67 0 -127 36l51 136q32 -23 55 -23q13 0 21 7zM254 572l-113 106l178 43l44 -149h-109z" />
    <glyph glyph-name="enspace" unicode="&#x2002;" 
 />
    <glyph glyph-name="emspace" unicode="&#x2003;" horiz-adv-x="1000" 
 />
    <glyph glyph-name="threeperemspace" unicode="&#x2004;" horiz-adv-x="333" 
 />
    <glyph glyph-name="fourperemspace" unicode="&#x2005;" horiz-adv-x="250" 
 />
    <glyph glyph-name="thinspace" unicode="&#x2009;" horiz-adv-x="133" 
 />
    <glyph glyph-name="hairspace" unicode="&#x200a;" horiz-adv-x="75" 
 />
    <glyph glyph-name="endash" unicode="&#x2013;" horiz-adv-x="463" 
d="M12 233l36 164h422l-36 -164h-422z" />
    <glyph glyph-name="emdash" unicode="&#x2014;" horiz-adv-x="737" 
d="M13 233l36 164h695l-36 -164h-695z" />
    <glyph glyph-name="quoteleft" unicode="&#x2018;" horiz-adv-x="235" 
d="M36 362l39 176q18 83 72.5 123t150.5 45l4 -72q-98 -13 -116 -74h91l-44 -198h-197z" />
    <glyph glyph-name="quoteright" unicode="&#x2019;" horiz-adv-x="235" 
d="M47 356l-4 71q97 13 116 75h-91l44 198h197l-39 -176q-18 -84 -73 -123.5t-150 -44.5z" />
    <glyph glyph-name="quotesinglbase" unicode="&#x201a;" horiz-adv-x="235" 
d="M-62 -146l-4 71q98 13 117 75h-92l44 198h198l-39 -176q-18 -84 -73 -123.5t-151 -44.5z" />
    <glyph glyph-name="quotedblleft" unicode="&#x201c;" horiz-adv-x="452" 
d="M36 361l39 177q18 82 71.5 122t144.5 45l4 -71q-91 -14 -109 -74h84l-44 -199h-190zM262 361l38 177q18 82 71.5 122t144.5 45l4 -71q-90 -14 -108 -74h83l-44 -199h-189z" />
    <glyph glyph-name="quotedblright" unicode="&#x201d;" horiz-adv-x="452" 
d="M47 356l-4 71q90 14 109 75h-84l44 198h189l-38 -176q-18 -82 -71.5 -122t-144.5 -46zM272 356l-4 71q91 14 109 75h-84l44 198h190l-39 -176q-18 -82 -71.5 -122t-144.5 -46z" />
    <glyph glyph-name="quotedblbase" unicode="&#x201e;" horiz-adv-x="452" 
d="M-62 -146l-4 71q91 14 109 75h-84l44 198h190l-39 -176q-35 -156 -216 -168zM164 -146l-4 71q90 14 109 75h-84l44 198h190l-39 -176q-35 -156 -216 -168z" />
    <glyph glyph-name="dagger" unicode="&#x2020;" horiz-adv-x="321" 
d="M94 229l70 257l-98 -11l26 119l91 -11l8 117h124l-44 -117l97 11l-26 -119l-93 11l-43 -257h-112z" />
    <glyph glyph-name="daggerdbl" unicode="&#x2021;" horiz-adv-x="334" 
d="M46 0l43 117l-96 -11l26 119l94 -11l11 136l48 136l-100 -11l27 119l91 -11l8 117h123l-43 -117l96 11l-26 -119l-94 11l-11 -136l-48 -136l100 11l-26 -119l-92 11l-8 -117h-123z" />
    <glyph glyph-name="bullet" unicode="&#x2022;" horiz-adv-x="415" 
d="M251 545q57 0 91 -35t34 -101q0 -52 -19.5 -110.5t-51.5 -91.5q-45 -45 -106 -45q-56 0 -90 34.5t-34 101.5q0 53 19 111t52 90q44 46 105 46z" />
    <glyph glyph-name="ellipsis" unicode="&#x2026;" horiz-adv-x="701" 
d="M-41 0l44 198h197l-44 -198h-197zM193 0l43 198h197l-44 -198h-196zM426 0l44 198h197l-44 -198h-197z" />
    <glyph glyph-name="perthousand" unicode="&#x2030;" horiz-adv-x="1020" 
d="M49 0l288 372l243 328h112l-288 -372l-243 -328h-112zM183 304q-60 0 -93.5 39.5t-33.5 110.5q0 58 18 116.5t57 97.5q40 40 98 40q60 0 93.5 -39.5t33.5 -110.5q0 -58 -18 -116.5t-55 -95.5q-42 -42 -100 -42zM189 405q12 0 21 9q18 18 29 62t11 82q0 49 -27 49
q-12 0 -21 -9q-18 -18 -29 -62t-11 -82q0 -49 27 -49zM512 -8q-60 0 -93.5 39.5t-33.5 110.5q0 58 18 116.5t55 95.5q42 42 100 42q60 0 93.5 -39.5t33.5 -110.5q0 -58 -18 -116.5t-55 -95.5q-42 -42 -100 -42zM518 93q12 0 21 9q18 18 29 62t11 82q0 49 -27 49
q-12 0 -21 -9q-18 -18 -29 -62t-11 -82q0 -49 27 -49zM831 -8q-60 0 -93.5 39.5t-33.5 110.5q0 58 18 116.5t55 95.5q42 42 100 42q60 0 93.5 -39.5t33.5 -110.5q0 -58 -18 -116.5t-55 -95.5q-42 -42 -100 -42zM837 93q12 0 21 9q18 18 29 62t11 82q0 49 -27 49
q-12 0 -21 -9q-18 -18 -29 -62t-11 -82q0 -49 27 -49z" />
    <glyph glyph-name="guilsinglleft" unicode="&#x2039;" horiz-adv-x="266" 
d="M93 38l-86 211l12 51l172 206l98 -59l-121 -180l45 -182z" />
    <glyph glyph-name="guilsinglright" unicode="&#x203a;" horiz-adv-x="266" 
d="M172 504l86 -211l-12 -51l-172 -206l-98 59l121 180l-45 182z" />
    <glyph glyph-name="Euro" unicode="&#x20ac;" horiz-adv-x="485" 
d="M34 372l24 112h47q33 94 91 152q74 76 181 76q104 0 185 -85l-105 -131q-40 40 -79 40q-34 0 -59 -25q-14 -14 -22 -30h119l-23 -109h-131q-2 -8 -8 -41h130l-23 -109h-118q5 -31 25 -46t47 -15q14 0 27.5 3.5t20 6.5t19 10t13.5 8l47 -155q-80 -46 -152 -46
q-102 0 -164 60.5t-67 170.5h-58l24 113h45l8 40h-44z" />
    <glyph glyph-name="published" unicode="&#x2117;" horiz-adv-x="601" 
d="M243 558h103q144 0 144 -118q0 -73 -45.5 -124t-132.5 -51h-19l-25 -116h-112zM378 429q0 16 -9.5 25t-23.5 9h-9l-23 -106h11q26 0 40 23t14 49zM366 715q106 0 169 -73t63 -202q0 -100 -31.5 -201t-101.5 -171q-83 -83 -197 -83q-107 0 -169.5 72.5t-62.5 202.5
q0 100 31.5 201t101.5 171q83 83 197 83zM271 22q97 0 167 70q63 63 92 159t29 188q0 112 -51.5 175.5t-144.5 63.5q-97 0 -167 -70q-63 -63 -92 -159t-29 -188q0 -112 51.5 -175.5t144.5 -63.5z" />
    <glyph glyph-name="servicemark" unicode="&#x2120;" horiz-adv-x="519" 
d="M149 383q-61 0 -110 41l39 71q39 -34 72 -34q22 0 22 17q0 11 -28 30q-61 41 -61 88q0 49 31 78q31 31 84 31q57 0 99 -37l-43 -67q-31 26 -58 26q-21 0 -21 -17q0 -12 32 -35q28 -19 42 -37.5t14 -47.5q0 -46 -31 -77q-32 -30 -83 -30zM263 387l68 313h82l25 -96l67 96
h88l-68 -313h-86l33 149l-66 -93h-1l-25 93l-32 -149h-85z" />
    <glyph glyph-name="trademark" unicode="&#x2122;" horiz-adv-x="522" 
d="M91 387l49 230h-61l18 83h211l-18 -83h-61l-50 -230h-88zM261 387l68 313h85l26 -95l68 95h89l-68 -313h-86l32 147l-68 -90h-1l-27 90l-32 -147h-86z" />
    <glyph glyph-name="minus" unicode="&#x2212;" horiz-adv-x="499" 
d="M27 268l37 168h442l-37 -168h-442z" />
    <glyph glyph-name="Q.alt" horiz-adv-x="578" 
d="M352 715q107 0 172 -67.5t65 -202.5q0 -73 -24 -160.5t-68 -155.5l42 -91l-141 -64l-19 44q-59 -31 -121 -31q-108 0 -172.5 67t-64.5 201q0 95 35 202.5t104 176.5q81 81 192 81zM269 156q15 0 30 9l-41 88l117 52q21 79 21 143q0 91 -55 91q-23 0 -44 -21
q-35 -35 -59 -122t-24 -147q0 -93 55 -93z" />
    <glyph glyph-name="a.alt" horiz-adv-x="510" 
d="M123 -12q-57 0 -89 42t-32 121q0 86 29.5 196t83.5 164q47 47 107 47q82 0 119 -75l13 63h191l-118 -546h-191l13 59q-58 -71 -126 -71zM228 151q15 0 28 13q23 23 38.5 79t15.5 95q0 57 -34 57q-15 0 -28 -13q-23 -23 -38.5 -79t-15.5 -95q0 -57 34 -57z" />
    <glyph glyph-name="aacute.alt" horiz-adv-x="510" 
d="M265 580l110 149l169 -43l-160 -106h-119zM123 -12q-57 0 -89 42t-32 121q0 86 29.5 196t83.5 164q47 47 107 47q82 0 119 -75l13 63h191l-118 -546h-191l13 59q-58 -71 -126 -71zM228 151q15 0 28 13q23 23 38.5 79t15.5 95q0 57 -34 57q-15 0 -28 -13
q-23 -23 -38.5 -79t-15.5 -95q0 -57 34 -57z" />
    <glyph glyph-name="abreve.alt" horiz-adv-x="510" 
d="M123 -12q-57 0 -89 42t-32 121q0 86 29.5 196t83.5 164q47 47 107 47q82 0 119 -75l13 63h191l-118 -546h-191l13 59q-58 -71 -126 -71zM228 151q15 0 28 13q23 23 38.5 79t15.5 95q0 57 -34 57q-15 0 -28 -13q-23 -23 -38.5 -79t-15.5 -95q0 -57 34 -57zM340 579
q-69 0 -105 33.5t-32 101.5h99q2 -44 47 -44q44 0 64 44h100q-19 -65 -64.5 -100t-108.5 -35z" />
    <glyph glyph-name="acircumflex.alt" horiz-adv-x="510" 
d="M169 580l125 134h135l65 -134h-99l-50 45l-69 -45h-107zM123 -12q-57 0 -89 42t-32 121q0 86 29.5 196t83.5 164q47 47 107 47q82 0 119 -75l13 63h191l-118 -546h-191l13 59q-58 -71 -126 -71zM228 151q15 0 28 13q23 23 38.5 79t15.5 95q0 57 -34 57q-15 0 -28 -13
q-23 -23 -38.5 -79t-15.5 -95q0 -57 34 -57z" />
    <glyph glyph-name="adieresis.alt" horiz-adv-x="510" 
d="M178 580l29 132h141l-29 -132h-141zM348 580l29 132h140l-29 -132h-140zM123 -12q-57 0 -89 42t-32 121q0 86 29.5 196t83.5 164q47 47 107 47q82 0 119 -75l13 63h191l-118 -546h-191l13 59q-58 -71 -126 -71zM228 151q15 0 28 13q23 23 38.5 79t15.5 95q0 57 -34 57
q-15 0 -28 -13q-23 -23 -38.5 -79t-15.5 -95q0 -57 34 -57z" />
    <glyph glyph-name="agrave.alt" horiz-adv-x="510" 
d="M123 -12q-57 0 -89 42t-32 121q0 86 29.5 196t83.5 164q47 47 107 47q82 0 119 -75l13 63h191l-118 -546h-191l13 59q-58 -71 -126 -71zM228 151q15 0 28 13q23 23 38.5 79t15.5 95q0 57 -34 57q-15 0 -28 -13q-23 -23 -38.5 -79t-15.5 -95q0 -57 34 -57zM282 580
l-113 106l178 43l44 -149h-109z" />
    <glyph glyph-name="amacron.alt" horiz-adv-x="510" 
d="M123 -12q-57 0 -89 42t-32 121q0 86 29.5 196t83.5 164q47 47 107 47q82 0 119 -75l13 63h191l-118 -546h-191l13 59q-58 -71 -126 -71zM228 151q15 0 28 13q23 23 38.5 79t15.5 95q0 57 -34 57q-15 0 -28 -13q-23 -23 -38.5 -79t-15.5 -95q0 -57 34 -57zM182 583l25 110
h303l-25 -110h-303z" />
    <glyph glyph-name="aogonek.alt" horiz-adv-x="510" 
d="M426 -57l-19 -89q-31 -4 -71 -4q-123 0 -123 60q0 44 60 90h-37l13 59q-58 -71 -126 -71q-57 0 -89 42t-32 121q0 86 29.5 196t83.5 164q47 47 107 47q82 0 119 -75l13 63h191l-118 -546h-31q-22 -23 -22 -36q0 -16 52 -21zM228 151q15 0 28 13q23 23 38.5 79t15.5 95
q0 57 -34 57q-15 0 -28 -13q-23 -23 -38.5 -79t-15.5 -95q0 -57 34 -57z" />
    <glyph glyph-name="aring.alt" horiz-adv-x="510" 
d="M472 704q0 -50 -35.5 -87.5t-91.5 -37.5q-44 0 -72.5 26t-28.5 70q0 49 35.5 86.5t91.5 37.5q43 0 72 -26t29 -69zM307 678q0 -19 11.5 -31.5t31.5 -12.5q25 0 42 18.5t17 47.5q0 19 -11.5 32t-31.5 13q-25 0 -42 -19t-17 -48zM123 -12q-57 0 -89 42t-32 121
q0 86 29.5 196t83.5 164q47 47 107 47q82 0 119 -75l13 63h191l-118 -546h-191l13 59q-58 -71 -126 -71zM228 151q15 0 28 13q23 23 38.5 79t15.5 95q0 57 -34 57q-15 0 -28 -13q-23 -23 -38.5 -79t-15.5 -95q0 -57 34 -57z" />
    <glyph glyph-name="aring.alt2" horiz-adv-x="465" 
d="M198 0l9 43q-56 -54 -114 -54q-51 0 -79.5 32.5t-28.5 92.5q0 49 16 98t45 78q44 46 124 46q47 0 96 -22l2 8q4 16 4 26q0 51 -66 51q-47 0 -113 -23l-17 153q69 19 129 25q-11 20 -11 47q0 48 36 85t91 37q44 0 73 -26t29 -70q0 -59 -46 -92q88 -39 88 -142
q0 -35 -9 -74l-69 -319h-189zM301 557q24 0 41 19t17 48q0 19 -11.5 32t-31.5 13q-25 0 -42 -19t-17 -48q0 -19 12 -32t32 -13zM186 107q16 0 30 14.5t20 40.5l12 61q-16 8 -34 8q-19 0 -31 -12q-24 -24 -24 -75q0 -37 27 -37z" />
    <glyph glyph-name="aringacute.alt" horiz-adv-x="510" 
d="M316 822l109 125l171 -36l-157 -89h-123zM472 704q0 -50 -35.5 -87.5t-91.5 -37.5q-44 0 -72.5 26t-28.5 70q0 49 35.5 86.5t91.5 37.5q43 0 72 -26t29 -69zM307 678q0 -19 11.5 -31.5t31.5 -12.5q25 0 42 18.5t17 47.5q0 19 -11.5 32t-31.5 13q-25 0 -42 -19t-17 -48z
M123 -12q-57 0 -89 42t-32 121q0 86 29.5 196t83.5 164q47 47 107 47q82 0 119 -75l13 63h191l-118 -546h-191l13 59q-58 -71 -126 -71zM228 151q15 0 28 13q23 23 38.5 79t15.5 95q0 57 -34 57q-15 0 -28 -13q-23 -23 -38.5 -79t-15.5 -95q0 -57 34 -57z" />
    <glyph glyph-name="aringacute.alt2" horiz-adv-x="465" 
d="M266 746l109 125l171 -36l-157 -89h-123zM198 0l9 43q-56 -54 -114 -54q-51 0 -79.5 32.5t-28.5 92.5q0 49 16 98t45 78q44 46 124 46q47 0 96 -22l2 8q4 16 4 26q0 51 -66 51q-47 0 -113 -23l-17 153q69 19 129 25q-11 20 -11 47q0 48 36 85t91 37q44 0 73 -26t29 -70
q0 -59 -46 -92q88 -39 88 -142q0 -35 -9 -74l-69 -319h-189zM301 557q24 0 41 19t17 48q0 19 -11.5 32t-31.5 13q-25 0 -42 -19t-17 -48q0 -19 12 -32t32 -13zM186 107q16 0 30 14.5t20 40.5l12 61q-16 8 -34 8q-19 0 -31 -12q-24 -24 -24 -75q0 -37 27 -37z" />
    <glyph glyph-name="atilde.alt" horiz-adv-x="510" 
d="M123 -12q-57 0 -89 42t-32 121q0 86 29.5 196t83.5 164q47 47 107 47q82 0 119 -75l13 63h191l-118 -546h-191l13 59q-58 -71 -126 -71zM228 151q15 0 28 13q23 23 38.5 79t15.5 95q0 57 -34 57q-15 0 -28 -13q-23 -23 -38.5 -79t-15.5 -95q0 -57 34 -57zM445 728l82 -17
q-35 -133 -113 -133q-28 0 -72 17q-45 15 -56 15q-15 0 -23.5 -8t-17.5 -28l-82 17q35 133 113 133q27 0 73 -17q46 -16 55 -16q14 0 23 8t18 29z" />
    <glyph glyph-name="three.alt" horiz-adv-x="456" 
d="M177 -13q-122 0 -214 72l84 153q66 -50 125 -50q30 0 47.5 16t17.5 41q0 24 -23 41t-75 19h-21l33 152h24q117 0 117 62q0 20 -15.5 32.5t-45.5 12.5q-49 0 -109 -31l-49 152q97 54 203 54q100 0 157.5 -49.5t57.5 -126.5q0 -138 -152 -190q90 -43 90 -139
q0 -99 -69 -160t-183 -61z" />
    <glyph glyph-name="registered.alt" horiz-adv-x="601" 
d="M366 715q106 0 169 -73t63 -202q0 -100 -31.5 -201t-101.5 -171q-83 -83 -197 -83q-107 0 -169.5 72.5t-62.5 202.5q0 100 31.5 201t101.5 171q83 83 197 83zM271 22q97 0 167 70q63 63 92 159t29 188q0 112 -51.5 175.5t-144.5 63.5q-97 0 -167 -70q-63 -63 -92 -159
t-29 -188q0 -112 51.5 -175.5t144.5 -63.5zM281 273l-26 -122h-113l89 410h101q87 0 126 -37q29 -29 29 -80q0 -69 -43 -112q-20 -20 -44 -29l35 -152h-120l-24 122h-10zM300 360h13q25 0 39 14q20 20 20 53q0 18 -10 28q-9 9 -26 9h-14z" />
    <glyph glyph-name="NUL" horiz-adv-x="0" 
 />
    <glyph glyph-name="hfjslug" horiz-adv-x="694" 
d="M255 276h8l11 34h1l11 -34h8l14 47h-8l-10 -35h-1l-11 35h-7l-11 -35h-1l-10 35h-8zM321 388q19 0 29 24h1l12 -24l12 6l-17 32q6 14 13 39l-13 3q-4 -18 -8 -30h-1l-16 31q23 21 23 42q0 31 -27 31q-12 0 -20 -9t-8 -22t14 -39q-23 -18 -23 -47q0 -16 8 -26.5t21 -10.5z
M50 -200v303q14 0 23 9.5t9 22.5t-9.5 22.5t-22.5 9.5v554h100l30 79h334l29 -79h101v-921h-208l-8 14h-163l-8 -14h-207zM523 277h8v12l8 8l15 -20h10l-20 26l18 20h-10l-20 -24h-1v24h-8v-46zM193 277h34v7h-26v13h23v7h-23v12h26v7h-34v-46zM184 391h15v79h47v-79h15v172
h-15v-79h-47v79h-15v-172zM132 277h8v32l25 -32h7v46h-8v-32l-25 32h-7v-46zM400 391h15v78h38v14h-38v66h43v14h-58v-172zM468 277h8v15h12l10 -15h9l-12 17q10 4 10 14q0 15 -17 15h-20v-46zM366 277h8v17l18 29h-9l-13 -22l-13 22h-9l18 -29v-17zM481 390q31 0 31 36v137
h-16v-137q0 -22 -16 -22q-8 0 -20 5v-15q10 -4 21 -4zM476 299v17h11q10 0 10 -8q0 -9 -10 -9h-11zM322 402q-16 0 -16 25q0 19 16 35l20 -39q-8 -21 -20 -21zM327 479q-12 22 -12 32q0 19 14 19q13 0 13 -19q0 -15 -15 -32zM426 283q-16 0 -16 17q0 6 4.5 11.5t11.5 5.5
t11.5 -5.5t4.5 -11.5q0 -17 -16 -17zM426 276q10 0 17 7t7 17q0 9 -7 16.5t-17 7.5t-17 -7.5t-7 -16.5q0 -10 7 -17t17 -7z" />
    <glyph glyph-name="i.dot" horiz-adv-x="241" 
d="M-34 0l118 546h191l-118 -546h-191zM90 579l31 141h194l-31 -141h-194z" />
    <glyph glyph-name="caron.alt" 
d="M260 570l44 171h114l-1 -1l-88 -170h-69z" />
    <glyph glyph-name="acute.cap" 
d="M228 727l98 127l188 -38l-147 -89h-139z" />
    <glyph glyph-name="hungarumlaut.cap" 
d="M338 727l48 63l-93 -63h-120l95 127l143 -30l23 30l162 -35l-138 -92h-120z" />
    <glyph glyph-name="grave.cap" 
d="M328 727l-107 89l194 38l41 -127h-128z" />
    <glyph glyph-name="circumflex.cap" 
d="M187 727l113 117h151l62 -117h-107l-44 38l-61 -38h-114z" />
    <glyph glyph-name="caron.cap" 
d="M539 844l-113 -117h-151l-62 117h107l44 -38l60 38h115z" />
    <glyph glyph-name="breve.cap" 
d="M352 725q-67 0 -100.5 29.5t-26.5 89.5h99q3 -31 45 -31q37 0 56 31h103q-41 -119 -176 -119z" />
    <glyph glyph-name="tilde.cap" 
d="M262 721l-82 16q35 134 114 134q26 0 75 -18q42 -15 56 -15q25 0 41 36l82 -16q-35 -134 -114 -134q-24 0 -75 18q-47 15 -56 15q-25 0 -41 -36z" />
    <glyph glyph-name="macron.cap" 
d="M191 731l26 112h319l-25 -112h-320z" />
    <glyph glyph-name="dieresis.cap" 
d="M192 727l27 124h143l-27 -124h-143zM365 727l27 124h144l-28 -124h-143z" />
    <glyph glyph-name="dotaccent.cap" 
d="M274 727l28 124h151l-27 -124h-152z" />
    <glyph glyph-name="ring.cap" 
d="M387 949q47 0 79.5 -27.5t32.5 -70.5q0 -52 -39 -88.5t-97 -36.5q-47 0 -79.5 28t-32.5 70q0 52 39 88.5t97 36.5zM369 782q29 0 47.5 18.5t18.5 43.5q0 22 -14.5 35.5t-39.5 13.5q-29 0 -47.5 -18.5t-18.5 -43.5q0 -22 14.5 -35.5t39.5 -13.5z" />
    </font>
</defs>
</svg>
